<?xml version="1.0" encoding="utf-8"?>
<!-- Generator: Adobe Illustrator 23.1.1, SVG Export Plug-In . SVG Version: 6.00 Build 0)  -->
<svg version="1.1" id="Artwork" xmlns="http://www.w3.org/2000/svg" xmlns:xlink="http://www.w3.org/1999/xlink" x="0px" y="0px"
	 width="109.85px" height="41px" viewBox="0 0 109.85 41" style="enable-background:new 0 0 109.85 41;" xml:space="preserve">
<style type="text/css">
	.st0{fill:#A6A6A6;}
	.st1{fill:#FFFFFF;}
</style>
<g>
	<g>
		<g>
			<g>
				<path class="st0" d="M99.32227,0H9.53468c-0.3667,0-0.72901,0-1.09473,0.00195C8.1338,0.00391,7.83009,0.00977,7.521,0.01465
					c-0.66552,0.0166-1.33935,0.05762-2.0039,0.17676C4.84767,0.30859,4.2256,0.50879,3.61622,0.81836
					C3.01759,1.125,2.4707,1.52344,1.99757,1.99707c-0.47852,0.47363-0.875,1.02246-1.17822,1.62109
					c-0.31104,0.6084-0.50831,1.2334-0.625,1.90332c-0.12061,0.66211-0.16211,1.33204-0.1792,2.00196
					C0.00587,7.83008,0.00489,8.1377,0,8.44434c0,0.3623,0,0.72558,0,1.09179V30.4648c0,0.3692,0,0.7305,0,1.0938
					c0.00489,0.3105,0.00587,0.6113,0.01515,0.9219c0.01709,0.6699,0.05859,1.3398,0.1792,2.0019
					c0.1167,0.6699,0.31396,1.2979,0.625,1.9043c0.30322,0.5957,0.6997,1.1446,1.17822,1.6143
					c0.47313,0.4775,1.02002,0.875,1.61865,1.1787c0.60938,0.3125,1.23145,0.5098,1.90088,0.6308
					c0.66455,0.1192,1.33838,0.1583,2.0039,0.1768c0.30909,0.0068,0.6128,0.0107,0.91895,0.0107C8.80567,40,9.16798,40,9.53468,40
					h89.78759c0.35941,0,0.7246,0,1.084-0.002c0.3047,0,0.6172-0.0039,0.92191-0.0107c0.6699-0.0185,1.3418-0.0576,2-0.1768
					c0.6699-0.121,1.2929-0.3183,1.9082-0.6308c0.5976-0.3037,1.1445-0.7012,1.6172-1.1787
					c0.4765-0.4697,0.873-1.0186,1.1816-1.6143c0.30659-0.6064,0.5059-1.2344,0.61909-1.9043
					c0.1231-0.6621,0.1621-1.332,0.1856-2.0019c0.0039-0.3106,0.0039-0.6114,0.0039-0.9219
					c0.0078-0.3633,0.0078-0.7246,0.0078-1.0938V9.53613c0-0.36621,0-0.72949-0.0078-1.09179c0-0.30664,0-0.61426-0.0039-0.9209
					c-0.0235-0.66992-0.0625-1.33985-0.1856-2.00196c-0.1132-0.66992-0.3125-1.29492-0.61909-1.90332
					c-0.3086-0.59863-0.7051-1.14746-1.1816-1.62109c-0.4727-0.47363-1.0196-0.87207-1.6172-1.17871
					c-0.6153-0.30957-1.2383-0.50977-1.9082-0.62695c-0.6582-0.11914-1.3301-0.16016-2-0.17676
					c-0.3047-0.00488-0.6172-0.01074-0.92191-0.01269C100.04687,0,99.68167,0,99.32227,0L99.32227,0z"/>
				<path d="M8.44483,39.125c-0.30468,0-0.60205-0.0039-0.90429-0.0107c-0.55908-0.0157-1.22217-0.0469-1.86914-0.1631
					c-0.61035-0.1104-1.15284-0.2901-1.65674-0.5479c-0.52149-0.2646-0.99024-0.6064-1.39697-1.0166
					c-0.41407-0.4062-0.7544-0.873-1.02051-1.3965C1.3379,35.4854,1.16065,34.9434,1.0542,34.333
					c-0.12206-0.6728-0.15331-1.3555-0.1665-1.875c-0.00634-0.2109-0.01464-0.9131-0.01464-0.9131V8.44434
					c0,0,0.00879-0.69141,0.01464-0.89454c0.01319-0.52392,0.04444-1.20605,0.16553-1.87207
					c0.10694-0.61377,0.28417-1.15527,0.54346-1.6621C1.8623,3.49121,2.20314,3.02197,2.61183,2.61768
					C3.0254,2.20361,3.4961,1.86084,4.01417,1.59521c0.51367-0.26074,1.05518-0.43896,1.65332-0.54394
					c0.67334-0.12061,1.35596-0.15088,1.87549-0.16406L8.44532,0.875h91.95605l0.9131,0.0127
					c0.5127,0.0127,1.1953,0.04297,1.8584,0.16259c0.6025,0.10547,1.1475,0.28467,1.6709,0.54785
					c0.5127,0.2627,0.98241,0.60547,1.3916,1.01563c0.4092,0.40625,0.7519,0.87793,1.0234,1.4043
					c0.2578,0.51123,0.4336,1.05273,0.5352,1.64892c0.1162,0.63086,0.1523,1.27881,0.1738,1.88721
					c0.0029,0.2832,0.0029,0.5874,0.0029,0.89014c0.0079,0.375,0.0079,0.73193,0.0079,1.09179V30.4648
					c0,0.3633,0,0.7178-0.0079,1.0752c0,0.3252,0,0.6231-0.0039,0.9297c-0.0205,0.5889-0.05659,1.2364-0.1709,1.8535
					c-0.1035,0.6133-0.2793,1.1553-0.54,1.67c-0.2695,0.5195-0.6123,0.9892-1.0156,1.3857
					c-0.41309,0.418-0.8819,0.7588-1.3994,1.0225c-0.5186,0.2636-1.0479,0.4384-1.668,0.5498
					c-0.6406,0.1162-1.3037,0.1474-1.8692,0.1631c-0.2929,0.0068-0.59959,0.0107-0.8974,0.0107l-1.084,0.002L8.44483,39.125z"/>
			</g>
		</g>
	</g>
	<g>
		<path class="st1" d="M41.16742,16.55462h-4.05157l-0.97298,2.87296h-1.71609l3.83759-10.62922h1.78296l3.83759,10.62922h-1.74535
			L41.16742,16.55462z M37.53547,15.2289h3.2115l-1.58318-4.66261h-0.0443L37.53547,15.2289z"/>
		<path class="st1" d="M52.1728,15.55322c0,2.40821-1.28895,3.95545-3.23407,3.95545c-1.10421,0-1.98107-0.49401-2.4383-1.35582
			h-0.03678v3.83842h-1.59071V11.67802h1.53971v1.28895h0.02925c0.44219-0.83171,1.38508-1.37003,2.46756-1.37003
			C50.87633,11.59694,52.1728,13.1517,52.1728,15.55322z M50.53779,15.55322c0-1.56897-0.81081-2.60046-2.04794-2.60046
			c-1.21539,0-2.03289,1.05323-2.03289,2.60046c0,1.56145,0.8175,2.60715,2.03289,2.60715
			C49.72697,18.16037,50.53779,17.1364,50.53779,15.55322z"/>
		<path class="st1" d="M60.70267,15.55322c0,2.40821-1.28937,3.95545-3.23449,3.95545c-1.10421,0-1.98107-0.49401-2.4383-1.35582
			H54.9931v3.83842H53.4024V11.67802h1.53971v1.28895h0.02926c0.44218-0.83171,1.38507-1.37003,2.46756-1.37003
			C59.40578,11.59694,60.70267,13.1517,60.70267,15.55322z M59.06725,15.55322c0-1.56897-0.81082-2.60046-2.04794-2.60046
			c-1.21539,0-2.03289,1.05323-2.03289,2.60046c0,1.56145,0.8175,2.60715,2.03289,2.60715
			C58.25643,18.16037,59.06725,17.1364,59.06725,15.55322z"/>
		<path class="st1" d="M66.3391,16.46602c0.11786,1.05406,1.14183,1.74618,2.54111,1.74618c1.34077,0,2.3054-0.69212,2.3054-1.64253
			c0-0.82503-0.58178-1.31904-1.95934-1.65758l-1.37756-0.33185c-1.95181-0.47144-2.85792-1.38424-2.85792-2.86544
			c0-1.83395,1.59823-3.09364,3.86684-3.09364c2.24688,0,3.7866,1.25969,3.83842,3.09364h-1.60575
			c-0.09613-1.06075-0.97298-1.70104-2.25441-1.70104s-2.15827,0.64782-2.15827,1.5907c0,0.75147,0.56004,1.19366,1.93008,1.53219
			l1.17109,0.28755c2.18084,0.51575,3.08611,1.39176,3.08611,2.94652c0,1.98859-1.58318,3.23407-4.10256,3.23407
			c-2.35722,0-3.94876-1.21622-4.05157-3.13878H66.3391z"/>
		<path class="st1" d="M76.29961,9.84407v1.83395h1.47368v1.25969h-1.47368v4.27225c0,0.6637,0.29507,0.97298,0.94289,0.97298
			c0.16216,0,0.42046-0.02257,0.52327-0.03678v1.25217c-0.17638,0.0443-0.52996,0.07356-0.88354,0.07356
			c-1.56897,0-2.18084-0.58931-2.18084-2.09224v-4.44194H73.5746v-1.25969h1.12679V9.84407H76.29961z"/>
		<path class="st1" d="M78.6259,15.55322c0-2.4383,1.43607-3.97049,3.67542-3.97049c2.24689,0,3.67626,1.53219,3.67626,3.97049
			c0,2.44499-1.42185,3.97049-3.67626,3.97049C80.04776,19.52372,78.6259,17.99821,78.6259,15.55322z M84.35679,15.55322
			c0-1.67262-0.76652-2.65981-2.05547-2.65981c-1.28894,0-2.05546,0.99471-2.05546,2.65981
			c0,1.67931,0.76652,2.65898,2.05546,2.65898C83.59027,18.2122,84.35679,17.23253,84.35679,15.55322z"/>
		<path class="st1" d="M87.2891,11.67802h1.51715v1.31904h0.03678c0.24324-0.87685,0.95041-1.40012,1.86404-1.40012
			c0.2282,0,0.41962,0.03009,0.54501,0.05935v1.48789c-0.12538-0.05183-0.40541-0.09613-0.71469-0.09613
			c-1.02397,0-1.65758,0.69296-1.65758,1.78296v4.59658H87.2891V11.67802z"/>
		<path class="st1" d="M98.5862,17.15145c-0.21399,1.40681-1.58401,2.37226-3.33688,2.37226
			c-2.25441,0-3.65369-1.51046-3.65369-3.93371c0-2.43078,1.40681-4.00727,3.58682-4.00727
			c2.14407,0,3.49236,1.47284,3.49236,3.82254v0.545h-5.47343v0.09613c0,1.32573,0.83255,2.19506,2.08472,2.19506
			c0.88354,0,1.5765-0.41962,1.78965-1.09H98.5862z M93.2089,14.83853h3.87437c-0.03678-1.18613-0.79577-1.96686-1.90082-1.96686
			C94.08492,12.87168,93.28999,13.66745,93.2089,14.83853z"/>
	</g>
	<g id="XMLID_8_">
		<g id="XMLID_9_">
			<path id="XMLID_11_" class="st1" d="M24.76888,20.30068c-0.02501-2.75083,2.25234-4.08949,2.35656-4.15206
				c-1.28959-1.88052-3.28892-2.1377-3.99116-2.15767c-1.67924-0.17626-3.30719,1.00483-4.1629,1.00483
				c-0.87227,0-2.18977-0.98733-3.6085-0.95814c-1.82632,0.02834-3.53561,1.08575-4.47292,2.72787
				c-1.93395,3.34842-0.49141,8.26947,1.3612,10.97608c0.9269,1.32535,2.01018,2.8058,3.42763,2.7533
				c1.38706-0.05753,1.9051-0.88448,3.5794-0.88448c1.65876,0,2.14478,0.88448,3.591,0.8511
				c1.48838-0.02416,2.42612-1.33124,3.32051-2.66914c1.07115-1.51954,1.50127-3.01586,1.51842-3.09251
				C27.65346,24.68815,24.79721,23.59873,24.76888,20.30068z"/>
			<path id="XMLID_10_" class="st1" d="M22.03725,12.21089c0.74569-0.93322,1.25621-2.20232,1.11452-3.49062
				c-1.07986,0.04789-2.43031,0.74645-3.20758,1.65961c-0.68773,0.80398-1.30247,2.12234-1.14371,3.36139
				C20.01333,13.83132,21.25871,13.12942,22.03725,12.21089z"/>
		</g>
	</g>
	<g>
		<path class="st1" d="M38.23413,28.2168c-0.24463,0.33887-0.6875,0.54688-1.24268,0.54688
			c-0.94141,0-1.57227-0.59375-1.57227-1.60059v-2.02441h-0.98877v-0.72461h5.82764v0.72461h-1.0918v5.39453h-0.89453V28.2168
			H38.23413z M38.27173,25.13867h-1.95801v1.92969c0,0.64941,0.30078,0.91309,0.84717,0.91309
			c0.70605,0,1.11084-0.52637,1.11084-1.28906V25.13867z"/>
		<path class="st1" d="M41.69605,28.00977c0.19775,0.22656,0.38574,0.43359,0.67773,0.80078l1.03564,1.31738l-0.7251,0.46191
			l-2.52295-3.23926l0.66846-0.52637c0.20703,0.26367,0.45166,0.47949,0.83789,0.47949c0.35791,0,0.55566-0.16016,0.55566-0.57422
			v-1.59082h-2.41992v-0.72461h4.34961v0.72461h-1.04492v1.64746c0,0.81934-0.53662,1.17676-1.1582,1.21484
			c-0.05615,0-0.17871,0-0.24463-0.01953L41.69605,28.00977z"/>
		<path class="st1" d="M50.52369,27.48242c0.46094,0.18848,0.81885,0.69727,0.81885,1.33691
			c0,0.92285-0.7627,1.65723-1.93945,1.65723c-1.22363,0-2.04297-0.78125-2.48535-1.6377l0.62158-0.45215
			c0.38574,0.79102,1.0542,1.33691,1.87354,1.33691c0.64941,0,1.0918-0.33008,1.0918-0.89453
			c0-0.2168-0.08447-0.41406-0.24463-0.53613L48.8479,28.6123c-0.78174-0.29199-1.30859-0.95996-1.30859-1.66602
			c0-0.59277,0.40479-0.99805,1.12939-0.99805h1.29004v-0.80957h-3.56836v-0.72461h5.64893v0.72461h-1.21436v1.54395h-1.71338
			c-0.55566,0-0.6875,0.16016-0.6875,0.45215c0,0.26367,0.21631,0.57422,0.5459,0.67773L50.52369,27.48242z"/>
		<path class="st1" d="M53.56177,25.13867v5.39453h-0.88477v-5.39453h-1.09229v-0.72461h3.07861v0.72461H53.56177z"/>
		<path class="st1" d="M55.11451,28.69727c0.25391,0.49902,0.69629,0.89453,1.33643,0.89453
			c0.65918,0,1.07373-0.36719,1.07373-0.95996c0-0.54688-0.34863-0.9043-1.10156-0.9043h-0.53662v-0.78125h0.43311
			c0.48926,0,0.93164-0.27344,0.93164-0.87598c0-0.64941-0.35742-0.93164-1.0918-0.93164h-1.9585v-0.72461H59.219v0.72461h-1.53467
			v0.04688c0.16943,0.09473,0.48975,0.35742,0.48975,0.93262c0,0.53613-0.30127,0.96973-0.7627,1.12891v0.04785
			c0.56494,0.12207,1.03564,0.62109,1.03564,1.33691c0,1.00684-0.73438,1.75098-1.98633,1.75098
			c-1.14893,0-1.81738-0.67773-2.08057-1.21484L55.11451,28.69727z"/>
		<path class="st1" d="M59.94117,28.63184c-0.41406-0.23535-0.74365-0.74414-0.74365-1.41309l0.64014-0.47949h2.34424v-1.60059
			h-3.41748v-0.72461h5.39452v0.72461h-1.09179v5.39453h-0.88525v-3.0127h-1.75098v0.91309L59.94117,28.63184z"/>
		<path class="st1" d="M68.94897,26.45703v-1.31836h-5.24414v-0.72461h7.24023v0.72461h-1.10156v5.39453h-0.89453v-3.31445
			c-0.1123-0.1123-0.38574-0.25391-0.6582-0.25391c-0.44336,0-0.71582,0.29199-0.71582,0.89453v0.89453h-0.83789v-0.91309
			c0-0.56543-0.27344-0.84766-0.70605-0.84766c-0.38672,0-0.75391,0.27344-0.75391,0.99805
			c0,0.78125,0.43359,1.51562,1.39355,2.02441l-0.59277,0.61133c-0.97949-0.50781-1.71387-1.4873-1.71387-2.66406
			c0-1.16699,0.79102-1.75098,1.58203-1.75098c0.60254,0,1.0166,0.28223,1.17676,0.73438h0.03711
			c0.12305-0.50879,0.54688-0.77246,0.98926-0.77246c0.3291,0,0.62109,0.12305,0.7627,0.2832H68.94897z"/>
		<path class="st1" d="M72.45776,25.13867v5.39453H71.573v-5.39453h-1.0918v-0.72461h1.07324
			c-0.4707-0.36719-1.10156-0.99805-1.50684-1.45996l-0.77148-0.89453l1.00684-0.22559l2.10938,2.58008h1.16699v0.72461H72.45776z"
			/>
		<path class="st1" d="M77.23022,27.48242c0.46094,0.18848,0.81934,0.69727,0.81934,1.33691
			c0,0.92285-0.7627,1.65723-1.93945,1.65723c-1.22461,0-2.04297-0.78125-2.48633-1.6377l0.62207-0.45215
			c0.38574,0.79102,1.05469,1.33691,1.87305,1.33691c0.64941,0,1.09277-0.33008,1.09277-0.89453
			c0-0.2168-0.08496-0.41406-0.24512-0.53613l-1.41211,0.31934c-0.78125-0.29199-1.30859-0.95996-1.30859-1.66602
			c0-0.59277,0.4043-0.99805,1.12988-0.99805h1.28906v-0.80957h-3.56738v-0.72461h5.64844v0.72461h-1.21484v1.54395h-1.71289
			c-0.55566,0-0.6875,0.16016-0.6875,0.45215c0,0.26367,0.2168,0.57422,0.5459,0.67773L77.23022,27.48242z"/>
		<path class="st1" d="M86.34937,26.83301c-0.62207,0-1.03613,0.45215-1.03613,1.09277v2.60742h-0.875v-1.61035h-0.03809
			c-0.17871,0.2168-0.5459,0.49023-1.16699,0.49023c-0.88477,0-1.64746-0.66895-1.64746-1.66699
			c0-1.19531,0.99805-1.81641,2.04297-1.69434l0.14062,0.79102c-0.65918-0.12207-1.28027,0.17871-1.28027,0.90332
			c0,0.51855,0.37695,0.89453,0.92285,0.89453c0.62109,0,1.02637-0.45215,1.02637-1.08203v-2.41992h-3.45508v-0.72461h7.78516
			v0.72461h-3.45508v1.42188h0.03809c0.19727-0.22656,0.58398-0.49023,1.17676-0.49023c0.88477,0,1.62891,0.65039,1.62891,1.65723
			c0,1.19531-0.98828,1.82617-2.03418,1.69434l-0.14062-0.79004c0.65918,0.12207,1.27051-0.17969,1.27051-0.89453
			C87.25269,27.2002,86.8855,26.83301,86.34937,26.83301z"/>
		<path class="st1" d="M90.19604,28.00977c0.19824,0.22656,0.38672,0.43359,0.67871,0.80078l1.03516,1.31738l-0.72461,0.46191
			l-2.52344-3.23926l0.66797-0.52637c0.20801,0.26367,0.45215,0.47949,0.83789,0.47949c0.3584,0,0.55566-0.16016,0.55566-0.57422
			v-1.59082h-2.41895v-0.72461h4.34961v0.72461h-1.0459v1.64746c0,0.81934-0.53613,1.17676-1.15723,1.21484
			c-0.05664,0-0.17871,0-0.24512-0.01953L90.19604,28.00977z"/>
		<path class="st1" d="M89.75171,21.96582l1.7793,2.48535l-0.71582,0.06641l-0.06543-0.05664
			c-0.36719-0.32031-0.95996-0.96973-1.39355-1.54395l-0.58398-0.7627L89.75171,21.96582z"/>
		<path class="st1" d="M91.59555,22.21973c0.3584,0,0.62207,0.27344,0.62207,0.64062c0,0.3291-0.26367,0.59277-0.62207,0.59277
			c-0.33887,0-0.60254-0.26367-0.60254-0.59277C90.99301,22.49316,91.25668,22.21973,91.59555,22.21973z"/>
	</g>
</g>
<g>
</g>
<g>
</g>
<g>
</g>
<g>
</g>
<g>
</g>
<g>
</g>
</svg>
