<svg id="OL" xmlns="http://www.w3.org/2000/svg" width="156.10052" height="40.00013" viewBox="0 0 156.10052 40.00013">
  <title>Download_on_the_Mac_App_Store_Badge_AR_RGB_blk_102417</title>
  <g>
    <g>
      <g>
        <path d="M146.57123,0H9.53468c-.3667,0-.729,0-1.09473.002-.30615.002-.60986.00781-.919.0127A13.21479,13.21479,0,0,0,5.5171.19141a6.6651,6.6651,0,0,0-1.90088.627A6.43779,6.43779,0,0,0,1.99757,1.99707,6.25844,6.25844,0,0,0,.81935,3.61816a6.60119,6.60119,0,0,0-.625,1.90332,12.993,12.993,0,0,0-.1792,2.002C.00587,7.83008.00489,8.1377,0,8.44434V31.5586c.00489.3105.00587.6113.01514.9219a12.99234,12.99234,0,0,0,.1792,2.0019,6.58757,6.58757,0,0,0,.625,1.9043A6.20779,6.20779,0,0,0,1.99757,38.001a6.27446,6.27446,0,0,0,1.61865,1.1787,6.70087,6.70087,0,0,0,1.90088.6308,13.45487,13.45487,0,0,0,2.0039.1768c.30909.0068.6128.0107.919.0107C8.80567,40,9.168,40,9.53468,40H146.57123c.35941,0,.72459,0,1.084-.002.3047,0,.6172-.0039.92191-.0107a13.27923,13.27923,0,0,0,2-.1768,6.80427,6.80427,0,0,0,1.9082-.6308,6.27723,6.27723,0,0,0,1.6172-1.1787,6.39463,6.39463,0,0,0,1.18159-1.6143,6.604,6.604,0,0,0,.61909-1.9043,13.50592,13.50592,0,0,0,.18559-2.0019c.00391-.3106.00391-.6114.00391-.9219.0078-.3633.0078-.7246.0078-1.0938V9.53613c0-.36621,0-.72949-.0078-1.09179,0-.30664,0-.61426-.00391-.9209a13.50725,13.50725,0,0,0-.18559-2.002,6.61765,6.61765,0,0,0-.61909-1.90332,6.46623,6.46623,0,0,0-2.7988-2.7998,6.76752,6.76752,0,0,0-1.9082-.627,13.044,13.044,0,0,0-2-.17676c-.3047-.00488-.6172-.01074-.92191-.01269-.35941-.002-.72459-.002-1.084-.002Z" transform="translate(0 0.00013)" style="fill: #a6a6a6"/>
        <path d="M8.44483,39.125c-.30468,0-.602-.0039-.90429-.0107a12.6871,12.6871,0,0,1-1.86914-.1631,5.88383,5.88383,0,0,1-1.65674-.5479,5.40573,5.40573,0,0,1-1.397-1.0166,5.3208,5.3208,0,0,1-1.02051-1.3965,5.72185,5.72185,0,0,1-.543-1.6572,12.41337,12.41337,0,0,1-.1665-1.875C.88131,32.2471.873,31.5449.873,31.5449V8.44434S.88185,7.75293.8877,7.5498a12.37033,12.37033,0,0,1,.16553-1.87207,5.75552,5.75552,0,0,1,.54346-1.6621,5.3735,5.3735,0,0,1,1.01514-1.398A5.56543,5.56543,0,0,1,4.01417,1.59521a5.82309,5.82309,0,0,1,1.65332-.54394A12.58586,12.58586,0,0,1,7.543.88721L8.44532.875h139.205l.9131.0127a12.3851,12.3851,0,0,1,1.8584.16259,5.93825,5.93825,0,0,1,1.6709.54785,5.59378,5.59378,0,0,1,2.415,2.41993,5.76285,5.76285,0,0,1,.5352,1.64892,12.994,12.994,0,0,1,.1738,1.88721c.0029.2832.0029.5874.0029.89014.0079.375.0079.73193.0079,1.09179V30.4648c0,.3633,0,.7178-.0079,1.0752,0,.3252,0,.6231-.00391.9297a12.73081,12.73081,0,0,1-.1709,1.8535,5.739,5.739,0,0,1-.54,1.67,5.48059,5.48059,0,0,1-1.01559,1.3857,5.413,5.413,0,0,1-1.3994,1.0225,5.86168,5.86168,0,0,1-1.668.5498,12.54258,12.54258,0,0,1-1.8692.1631c-.29289.0068-.59959.0107-.8974.0107l-1.084.002Z" transform="translate(0 0.00013)"/>
      </g>
      <g>
        <path d="M21.02519,30.49609V21.35645h-.06055l-3.74316,9.04492H15.79277l-3.75293-9.04492h-.05957V30.4961H10.22441V18.0781H12.4539l4.01855,9.80176h.06836l4.01074-9.80176h2.2373v12.418Z" transform="translate(0 0.00013)" style="fill: #fff"/>
        <path d="M24.27226,27.92285c0-1.583,1.21289-2.53906,3.36523-2.668l2.47852-.1377v-.68848c0-1.00684-.66309-1.5752-1.791-1.5752a1.73035,1.73035,0,0,0-1.90137,1.27441H24.68535c.05176-1.63574,1.5752-2.79687,3.69141-2.79687,2.16016,0,3.58887,1.17871,3.58887,2.96v6.20508H30.18437V29.00684h-.043A3.23683,3.23683,0,0,1,27.284,30.65137a2.74447,2.74447,0,0,1-2.9987-2.46415Q24.27241,28.05543,24.27226,27.92285Zm5.84375-.81738V26.4082l-2.22949.1377c-1.11035.06934-1.73828.55078-1.73828,1.3252,0,.792.6543,1.30859,1.65234,1.30859a2.17046,2.17046,0,0,0,2.31236-2.01861l.00306-.05561Z" transform="translate(0 0.00013)" style="fill: #fff"/>
        <path d="M39.76933,24.55762a1.99909,1.99909,0,0,0-2.13379-1.66895c-1.42871,0-2.375,1.19629-2.375,3.081,0,1.92773.95508,3.08887,2.3916,3.08887a1.94829,1.94829,0,0,0,2.11719-1.626h1.79a3.61835,3.61835,0,0,1-3.92383,3.17578c-2.582,0-4.26855-1.76465-4.26855-4.63867,0-2.81445,1.68652-4.63867,4.251-4.63867a3.63931,3.63931,0,0,1,3.9248,3.22656Z" transform="translate(0 0.00013)" style="fill: #fff"/>
        <path d="M53.63554,27.13965h-4.7334L47.76542,30.4961H45.76054l4.4834-12.418h2.083l4.4834,12.418H54.77128Zm-4.24316-1.54883h3.752l-1.84961-5.44727H51.243Z" transform="translate(0 0.00013)" style="fill: #fff"/>
        <path d="M66.493,25.96973c0,2.81348-1.50586,4.62109-3.77832,4.62109a3.0693,3.0693,0,0,1-2.84863-1.584h-.043V33.4912h-1.8584V21.44238h1.79883v1.50586h.03418a3.21161,3.21161,0,0,1,2.88281-1.60059C64.97831,21.34766,66.493,23.16406,66.493,25.96973Zm-1.91016,0c0-1.833-.94727-3.03809-2.39258-3.03809-1.41992,0-2.375,1.23047-2.375,3.03809,0,1.82422.95508,3.0459,2.375,3.0459,1.44528,0,2.39255-1.19629,2.39255-3.0459Z" transform="translate(0 0.00013)" style="fill: #fff"/>
        <path d="M76.45781,25.96973c0,2.81348-1.50586,4.62109-3.77832,4.62109a3.0693,3.0693,0,0,1-2.84863-1.584h-.043V33.4912h-1.8584V21.44238h1.79883v1.50586h.03418a3.21162,3.21162,0,0,1,2.88281-1.60059C74.94316,21.34766,76.45781,23.16406,76.45781,25.96973Zm-1.91016,0c0-1.833-.94727-3.03809-2.39258-3.03809-1.41992,0-2.375,1.23047-2.375,3.03809,0,1.82422.95508,3.0459,2.375,3.0459C73.60039,29.01563,74.54765,27.81934,74.54765,25.96973Z" transform="translate(0 0.00013)" style="fill: #fff"/>
        <path d="M83.04374,27.03613c.1377,1.23145,1.334,2.04,2.96875,2.04,1.56641,0,2.69336-.80859,2.69336-1.91895,0-.96387-.67969-1.541-2.28906-1.93652l-1.60937-.3877c-2.28027-.55078-3.33887-1.61719-3.33887-3.34766,0-2.14258,1.86719-3.61426,4.51855-3.61426,2.624,0,4.42285,1.47168,4.4834,3.61426h-1.876c-.1123-1.23926-1.13672-1.9873-2.63379-1.9873s-2.5215.75684-2.5215,1.8584c0,.87793.65431,1.39453,2.25489,1.79l1.36816.33594c2.54785.60254,3.60645,1.626,3.60645,3.44238,0,2.32324-1.85059,3.77832-4.794,3.77832-2.75391,0-4.61328-1.4209-4.7334-3.667Z" transform="translate(0 0.00013)" style="fill: #fff"/>
        <path d="M94.67949,19.2998v2.14258h1.72168v1.47168H94.67949v4.99121c0,.77539.34473,1.13672,1.10156,1.13672a5.80751,5.80751,0,0,0,.61133-.043v1.46289a5.10341,5.10341,0,0,1-1.03223.08594c-1.833,0-2.54785-.68848-2.54785-2.44434V22.91406H91.49589V21.44238H92.8123V19.2998Z" transform="translate(0 0.00013)" style="fill: #fff"/>
        <path d="M97.39726,25.96973c0-2.84863,1.67773-4.63867,4.294-4.63867,2.625,0,4.29492,1.79,4.29492,4.63867,0,2.85645-1.66113,4.63867-4.29492,4.63867C99.05839,30.6084,97.39726,28.82617,97.39726,25.96973Zm6.69531,0c0-1.9541-.89551-3.10742-2.40137-3.10742s-2.40137,1.16211-2.40137,3.10742c0,1.96191.89551,3.10645,2.40137,3.10645S104.09257,27.93164,104.09258,25.96973Z" transform="translate(0 0.00013)" style="fill: #fff"/>
        <path d="M107.51933,21.44238h1.77246v1.541h.043a2.1594,2.1594,0,0,1,2.17773-1.63574,2.86616,2.86616,0,0,1,.63672.06934v1.73828a2.598,2.598,0,0,0-.835-.1123,1.87263,1.87263,0,0,0-1.93651,2.083v5.37012h-1.8584Z" transform="translate(0 0.00013)" style="fill: #fff"/>
        <path d="M120.7166,27.83691c-.25,1.64355-1.85059,2.77148-3.89844,2.77148-2.63379,0-4.26855-1.76465-4.26855-4.5957,0-2.83984,1.64355-4.68164,4.19043-4.68164,2.50488,0,4.08008,1.7207,4.08008,4.46582v.63672h-6.39453v.1123a2.358,2.358,0,0,0,2.43555,2.56445A2.04834,2.04834,0,0,0,118.952,27.8369Zm-6.28223-2.70215h4.52637a2.1773,2.1773,0,0,0-2.05288-2.295q-.08383-.00467-.16782-.00286a2.292,2.292,0,0,0-2.30563,2.27829Q114.43435,25.125,114.43437,25.13476Z" transform="translate(0 0.00013)" style="fill: #fff"/>
      </g>
      <g id="_Group_" data-name=" Group ">
        <g id="_Group_2" data-name=" Group 2">
          <path id="_Path_" data-name=" Path " d="M143.69548,20.30068a4.94884,4.94884,0,0,1,2.35657-4.15206,5.06565,5.06565,0,0,0-3.99117-2.15768c-1.67925-.17626-3.30719,1.00483-4.1629,1.00483-.87227,0-2.18977-.98733-3.60851-.95814a5.31528,5.31528,0,0,0-4.47292,2.72787c-1.934,3.34842-.49141,8.26947,1.36121,10.97608.9269,1.32535,2.01018,2.8058,3.42763,2.7533,1.38705-.05753,1.90511-.88448,3.57941-.88448,1.65875,0,2.14479.88448,3.591.8511,1.48837-.02416,2.42613-1.33124,3.32051-2.66914a10.9623,10.9623,0,0,0,1.51842-3.09251A4.782,4.782,0,0,1,143.69548,20.30068Z" transform="translate(0 0.00013)" style="fill: #fff"/>
          <path id="_Path_2" data-name=" Path 2" d="M140.96387,12.21089a4.87248,4.87248,0,0,0,1.11452-3.49062,4.95746,4.95746,0,0,0-3.20758,1.65961,4.63635,4.63635,0,0,0-1.14371,3.36139A4.09906,4.09906,0,0,0,140.96387,12.21089Z" transform="translate(0 0.00013)" style="fill: #fff"/>
        </g>
      </g>
    </g>
    <g>
      <path d="M90.23037,16.0835H89.577c-1.272,0-2.61377-.26123-2.61377-2.02148a9.81083,9.81083,0,0,1,.54-2.31738l.84521.22656-.12207.39209a7.92754,7.92754,0,0,0-.35693,1.69873c0,1.21094,1.15869,1.21094,1.94287,1.21094h.54883c.39209,0,.93213-.15674.93213-.65332V11.17822H92.226v2.5791a1.53552,1.53552,0,0,0,.63574.12158H93.184v.80176h-.32227a2.26375,2.26375,0,0,1-.63574-.0957v.122C92.226,15.15967,91.87734,16.0835,90.23037,16.0835Zm-.53125-5.84619a.56247.56247,0,1,1,.59229-.56641.55276.55276,0,0,1-.53748.56762q-.02742.00075-.05481-.00122Z" transform="translate(0 0.00013)" style="fill: #fff"/>
      <path d="M94.23623,13.87891a4.01976,4.01976,0,0,1-.14844-1.17627,1.86265,1.86265,0,0,1,1.89063-2.05615c1.2373,0,1.7168,1.01074,1.7168,2.21338,0,.88867-.314,2.09082-1.5249,2.09082a4.586,4.586,0,0,1-1.16748-.27h-1.978v-.80176Zm.94092.03516a2.81692,2.81692,0,0,0,.93213.21777c.54,0,.68848-.68848.68848-1.29834,0-.5835-.16553-1.41992-.87158-1.41992-.63574,0-.91455.59229-.91455,1.3418a3.41881,3.41881,0,0,0,.16553,1.15868Z" transform="translate(0 0.00013)" style="fill: #fff"/>
      <path d="M103.84414,16.0835h-.65332c-1.27246,0-2.61426-.26123-2.61426-2.02148a9.83461,9.83461,0,0,1,.54-2.31738l.8457.22656-.12207.39209a7.92511,7.92511,0,0,0-.35742,1.69873c0,1.21094,1.15918,1.21094,1.94336,1.21094h.54883c.3916,0,.93164-.15674.93164-.65332V8.80811h.93262v4.94922a1.53717,1.53717,0,0,0,.63574.12158h.32227v.80176H106.475a2.26872,2.26872,0,0,1-.63574-.0957v.122C105.83925,15.15967,105.49062,16.0835,103.84414,16.0835Z" transform="translate(0 0.00013)" style="fill: #fff"/>
      <path d="M109.932,10.69043v2.44824c0,1.03662-.61914,1.542-1.84766,1.542h-1.44629v-.80176h1.41211c.74023,0,.94043-.32227.94043-.87109V10.69043Zm-2.335,5.94189a.56249.56249,0,1,1,.59277-.56641.55276.55276,0,0,1-.53745.56766q-.02764.00076-.05526-.00125Zm1.46387,0a.56246.56246,0,1,1,.5918-.56641.55276.55276,0,0,1-.53751.5676q-.02712.00074-.05422-.00119Z" transform="translate(0 0.00013)" style="fill: #fff"/>
      <path d="M110.62734,15.98779a3.48855,3.48855,0,0,0,.40039.02588c.76758,0,1.15039-.44434,1.15039-1.3418V11.16943h.94141V13.8789h.8623v.80176h-.87109a2.35047,2.35047,0,0,1-.60156,1.61182,2.215,2.215,0,0,1-1.51562.51416,5.18281,5.18281,0,0,1-.59277-.04346Zm1.97754-5.66357a.56249.56249,0,1,1,.59277-.56641.55248.55248,0,0,1-.59277.56641Z" transform="translate(0 0.00013)" style="fill: #fff"/>
      <path d="M117.07363,14.68066a2.34857,2.34857,0,0,1-1.07129-.29639,2.60147,2.60147,0,0,1-1.47266.29639h-.706V13.8789h.75879c.71387,0,.85352-.11328.85352-.63574V10.69043h.93262v3.03174a1.588,1.588,0,0,0,.70508.15674h.584v.80176Zm-1.21094-4.86182a.56249.56249,0,1,1,.59277-.56641.55238.55238,0,0,1-.59277.56641Z" transform="translate(0 0.00013)" style="fill: #fff"/>
      <path d="M119.88711,10.69043v2.44824c0,1.03662-.61816,1.542-1.84668,1.542h-.541v-.80176h.50587c.74023,0,.94043-.32227.94043-.87109V10.69043Zm-1.38574-.87158a.56249.56249,0,1,1,.59277-.56641.55246.55246,0,0,1-.59277.56641Zm1.46387,0a.56249.56249,0,1,1,.59277-.56641.55247.55247,0,0,1-.59277.56641Z" transform="translate(0 0.00013)" style="fill: #fff"/>
    </g>
  </g>
</svg>
