<svg id="KR" xmlns="http://www.w3.org/2000/svg" width="161.01934" height="40" viewBox="0 0 161.01934 40">
  <title>Download_on_the_Mac_App_Store_Badge_KR_RGB_blk_100317</title>
  <g>
    <g>
      <g>
        <path d="M151.49,0H9.53468c-.3667,0-.729,0-1.09473.002-.30615.002-.60986.00781-.91895.0127A13.21476,13.21476,0,0,0,5.5171.19141a6.66509,6.66509,0,0,0-1.90088.627A6.4378,6.4378,0,0,0,1.99757,1.99707,6.25844,6.25844,0,0,0,.81935,3.61816a6.60119,6.60119,0,0,0-.625,1.90332,12.993,12.993,0,0,0-.1792,2.002C.00587,7.83008.00489,8.1377,0,8.44434V31.5586c.00489.3105.00587.6113.01514.9219a12.99232,12.99232,0,0,0,.1792,2.0019,6.58756,6.58756,0,0,0,.625,1.9043A6.20778,6.20778,0,0,0,1.99757,38.001a6.27446,6.27446,0,0,0,1.61865,1.1787,6.70082,6.70082,0,0,0,1.90088.6308,13.45514,13.45514,0,0,0,2.0039.1768c.30909.0068.6128.0107.91895.0107C8.80567,40,9.168,40,9.53468,40H151.49c.3594,0,.7246,0,1.084-.002.3047,0,.6172-.0039.9219-.0107a13.279,13.279,0,0,0,2-.1768,6.80432,6.80432,0,0,0,1.9082-.6308,6.27742,6.27742,0,0,0,1.6172-1.1787,6.39482,6.39482,0,0,0,1.1816-1.6143,6.60413,6.60413,0,0,0,.6191-1.9043,13.50643,13.50643,0,0,0,.1856-2.0019c.0039-.3106.0039-.6114.0039-.9219.0078-.3633.0078-.7246.0078-1.0938V9.53613c0-.36621,0-.72949-.0078-1.09179,0-.30664,0-.61426-.0039-.9209a13.5071,13.5071,0,0,0-.1856-2.002,6.6177,6.6177,0,0,0-.6191-1.90332,6.46619,6.46619,0,0,0-2.7988-2.7998,6.76754,6.76754,0,0,0-1.9082-.627,13.04394,13.04394,0,0,0-2-.17676c-.3047-.00488-.6172-.01074-.9219-.01269C152.21464,0,151.84944,0,151.49,0Z" style="fill: #a6a6a6"/>
        <path d="M8.44483,39.125c-.30468,0-.60205-.0039-.90429-.0107a12.68714,12.68714,0,0,1-1.86914-.1631,5.88381,5.88381,0,0,1-1.65674-.5479,5.40573,5.40573,0,0,1-1.397-1.0166,5.32082,5.32082,0,0,1-1.02051-1.3965,5.72184,5.72184,0,0,1-.543-1.6572,12.41339,12.41339,0,0,1-.1665-1.875c-.00634-.2109-.01464-.9131-.01464-.9131V8.44434S.88185,7.75293.8877,7.5498a12.37032,12.37032,0,0,1,.16553-1.87207,5.75552,5.75552,0,0,1,.54346-1.6621A5.3735,5.3735,0,0,1,2.61183,2.61768,5.56543,5.56543,0,0,1,4.01417,1.59521a5.82309,5.82309,0,0,1,1.65332-.54394A12.58589,12.58589,0,0,1,7.543.88721L8.44532.875H152.56914l.9131.0127a12.38492,12.38492,0,0,1,1.8584.16259,5.93833,5.93833,0,0,1,1.6709.54785,5.59374,5.59374,0,0,1,2.415,2.41993,5.76267,5.76267,0,0,1,.5352,1.64892,12.995,12.995,0,0,1,.1738,1.88721c.0029.2832.0029.5874.0029.89014.0079.375.0079.73193.0079,1.09179V30.4648c0,.3633,0,.7178-.0079,1.0752,0,.3252,0,.6231-.0039.9297a12.73126,12.73126,0,0,1-.1709,1.8535,5.739,5.739,0,0,1-.54,1.67,5.48029,5.48029,0,0,1-1.0156,1.3857,5.4129,5.4129,0,0,1-1.3994,1.0225,5.86168,5.86168,0,0,1-1.668.5498,12.54218,12.54218,0,0,1-1.8692.1631c-.2929.0068-.5996.0107-.8974.0107l-1.084.002Z"/>
      </g>
      <g>
        <path d="M37.92678,25.28418H35.41311v3.48926a16.90771,16.90771,0,0,0,3.10254-.22852l.09229.752a21.76036,21.76036,0,0,1-3.56836.25879h-.54492V24.52344h3.43213Zm2.0874,1.40137h1.08545v.76563H40.01418V31.2959h-.92725V23.82031h.92725Z" style="fill: #fff"/>
        <path d="M48.55471,27.50391v.73828H45.69826v1.41016h-.936V28.24219H41.79592v-.73828Zm-5.97217-1.97363c0-.86621,1.00635-1.49414,2.59717-1.49414s2.606.62793,2.606,1.49414c0,.87891-1.01514,1.50684-2.59717,1.50684C43.58889,27.03711,42.58254,26.40918,42.58254,25.53027Zm.97119,4.8291h4.22314v.73438h-5.1416v-2.127h.91846Zm-.02637-4.82031c0,.47852.69873.78711,1.64795.78711.98,0,1.65674-.30859,1.65674-.78711,0-.48828-.67236-.7998-1.65234-.7998C44.22609,24.73926,43.52736,25.05078,43.52736,25.53906Z" style="fill: #fff"/>
        <path d="M56.15432,29.61328v.73828H49.39553v-.73828H52.3091V28.39551H50.26125V25.94336h4.1001V25.0332H50.24807V24.291h5.04932v2.39941H51.1841v.9668h4.30225v.73828H53.232v1.21777Z" style="fill: #fff"/>
        <path d="M63.75441,30.30273H56.99563v-.73828h6.75879Zm-.87012-5.10156H58.7842v2.05664h4.15723v.74609H57.87014V24.45313H62.8843Z" style="fill: #fff"/>
        <path d="M71.1758,26.35645H66.81643V25.623H71.1758ZM69.03518,29.877A1.59929,1.59929,0,1,1,70.833,28.29,1.6345,1.6345,0,0,1,69.03518,29.877Zm1.12988-4.82129H67.89748v-.751h2.26758Zm-1.12988,4.09082a.86055.86055,0,1,0,0-1.71777.85949.85949,0,1,0,0,1.71777Zm3.65625-2.23633h1.07227v.75977H72.69143v3.626h-.92187V23.8252h.92188Z" style="fill: #fff"/>
        <path d="M74.99611,29.9375l-.52246-.72461a4.92464,4.92464,0,0,0,2.93555-3.84082H74.89064v-.76465h3.50293A5.96739,5.96739,0,0,1,74.99611,29.9375Zm5.64258,1.36328h-.92676V23.82031h.92676Z" style="fill: #fff"/>
      </g>
      <g>
        <path d="M44.57229,19.42236V11.61182H44.5215l-3.19922,7.72949H40.10061l-3.20605-7.72949h-.05176v7.81055h-1.5V8.80908h1.9043l3.43457,8.377h.05957l3.42676-8.377H46.0801V19.42236Z" style="fill: #fff"/>
        <path d="M47.3965,17.22314c0-1.35352,1.03613-2.16992,2.875-2.28027l2.11816-.11719v-.58887c0-.86035-.56641-1.3457-1.5293-1.3457a1.47959,1.47959,0,0,0-1.626,1.08887H47.749c.04395-1.39746,1.3457-2.39062,3.15527-2.39062,1.8457,0,3.06641,1.00781,3.06641,2.53027v5.30273H52.44924V18.1499h-.03711a2.76628,2.76628,0,0,1-2.44238,1.40527A2.345,2.345,0,0,1,47.3965,17.22314Zm4.99316-.69824v-.5957l-1.9043.11719c-.94922.05859-1.48633.4707-1.48633,1.13281,0,.67676.55957,1.11816,1.41211,1.11816A1.85452,1.85452,0,0,0,52.38967,16.5249Z" style="fill: #fff"/>
        <path d="M60.64162,14.34717a1.70893,1.70893,0,0,0-1.82422-1.42676c-1.2207,0-2.0293,1.02246-2.0293,2.63379,0,1.64746.81641,2.63965,2.04395,2.63965a1.665,1.665,0,0,0,1.80957-1.38965h1.53027a3.09321,3.09321,0,0,1-3.35449,2.71387c-2.20605,0-3.64746-1.50781-3.64746-3.96387,0-2.40527,1.44141-3.96484,3.63281-3.96484a3.11111,3.11111,0,0,1,3.35449,2.75781Z" style="fill: #fff"/>
        <path d="M72.49123,16.5542H68.44631l-.9707,2.86816H65.76174l3.832-10.61328h1.7793l3.832,10.61328H73.46193ZM68.86525,15.23h3.207l-1.582-4.65527h-.04395Z" style="fill: #fff"/>
        <path d="M83.49465,15.5542c0,2.4043-1.28662,3.94922-3.228,3.94922a2.62169,2.62169,0,0,1-2.43457-1.35352h-.03613v3.832H76.20705V11.68506h1.53711v1.28711h.0293A2.74353,2.74353,0,0,1,80.23732,11.604C82.20119,11.604,83.49465,13.15576,83.49465,15.5542Zm-1.63232,0c0-1.56738-.80859-2.59668-2.04395-2.59668-1.21387,0-2.03027,1.05176-2.03027,2.59668,0,1.55859.81641,2.60352,2.03027,2.60352C81.05373,18.15771,81.86232,17.13525,81.86232,15.5542Z" style="fill: #fff"/>
        <path d="M92.0259,15.5542c0,2.4043-1.28711,3.94922-3.22852,3.94922a2.62169,2.62169,0,0,1-2.43457-1.35352h-.03613v3.832H84.73781V11.68506h1.53711v1.28711h.0293A2.74353,2.74353,0,0,1,88.76809,11.604C90.732,11.604,92.0259,13.15576,92.0259,15.5542Zm-1.63281,0c0-1.56738-.80859-2.59668-2.04395-2.59668-1.21387,0-2.03027,1.05176-2.03027,2.59668,0,1.55859.81641,2.60352,2.03027,2.60352C89.58449,18.15771,90.39309,17.13525,90.39309,15.5542Z" style="fill: #fff"/>
        <path d="M97.68508,16.46533c.11816,1.05176,1.13965,1.74316,2.53711,1.74316,1.33887,0,2.30273-.69141,2.30273-1.63965,0-.82422-.58105-1.31641-1.957-1.65527l-1.375-.33105c-1.94922-.4707-2.85352-1.38184-2.85352-2.86035,0-1.83105,1.5957-3.08887,3.86133-3.08887,2.24316,0,3.78027,1.25781,3.832,3.08887h-1.60352c-.0957-1.05957-.9707-1.69922-2.251-1.69922-1.2793,0-2.15527.64746-2.15527,1.58887,0,.75.55957,1.19141,1.92773,1.5293l1.16895.28711c2.17676.51465,3.082,1.38965,3.082,2.94238,0,1.98535-1.58105,3.22852-4.09668,3.22852-2.35352,0-3.94238-1.21387-4.04492-3.13379Z" style="fill: #fff"/>
        <path d="M107.63137,9.854v1.83105h1.4707v1.25781h-1.4707V17.2085c0,.66211.29395.9707.94141.9707a4.8507,4.8507,0,0,0,.52148-.03613v1.25a4.38318,4.38318,0,0,1-.88184.07324c-1.56738,0-2.17773-.58789-2.17773-2.08887V12.94287h-1.125V11.68506h1.125V9.854Z" style="fill: #fff"/>
        <path d="M109.97121,15.5542c0-2.43457,1.43359-3.96484,3.66992-3.96484,2.24316,0,3.66992,1.53027,3.66992,3.96484,0,2.44141-1.41895,3.96387-3.66992,3.96387S109.97121,17.99561,109.97121,15.5542Zm5.72168,0c0-1.66992-.76465-2.65527-2.05176-2.65527s-2.05176.99219-2.05176,2.65527c0,1.67676.76465,2.6543,2.05176,2.6543S115.69289,17.231,115.69289,15.5542Z" style="fill: #fff"/>
        <path d="M118.6216,11.68506h1.51465v1.31641h.03711a1.84423,1.84423,0,0,1,1.86035-1.39746,2.38575,2.38575,0,0,1,.54492.05957v1.48535a2.22372,2.22372,0,0,0-.71387-.0957,1.59934,1.59934,0,0,0-1.6543,1.7793v4.58984H118.6216Z" style="fill: #fff"/>
        <path d="M129.9009,17.1499a3.10452,3.10452,0,0,1-3.332,2.36816c-2.25,0-3.64746-1.50781-3.64746-3.92773,0-2.42676,1.4043-4.001,3.582-4.001,2.13965,0,3.48535,1.4707,3.48535,3.81738v.54395h-5.46387v.0957a2.01455,2.01455,0,0,0,2.08105,2.19141,1.75062,1.75062,0,0,0,1.78711-1.08789Zm-5.36914-2.30957h3.86914a1.86157,1.86157,0,0,0-1.89746-1.96387A1.95963,1.95963,0,0,0,124.53176,14.84033Z" style="fill: #fff"/>
        <path d="M136.4175,8.98779h1.23926V18.9165H136.4175V13.90479h-.90625c-.11328,1.77051-.832,3.30957-2.28418,3.30957-1.59473,0-2.30176-1.85156-2.30176-3.82813,0-1.97754.707-3.791,2.30176-3.791,1.4209,0,2.13965,1.43848,2.27734,3.15234h.91309Zm-2.10742,4.39844c0-1.458-.35059-2.57129-1.083-2.57129-.71289,0-1.03809,1.11328-1.03809,2.57129,0,1.46387.3252,2.56445,1.03809,2.56445C133.95949,15.95068,134.31008,14.8501,134.31008,13.38623ZM139.8218,8.7749V19.4165h-1.23926V8.7749Z" style="fill: #fff"/>
        <path d="M145.41848,11.271a4.94923,4.94923,0,0,0,2.62793,4.60449l-.76953.99512a5.85416,5.85416,0,0,1-2.52148-2.86523,5.85662,5.85662,0,0,1-2.55273,3.14063l-.81348-.96387a5.33981,5.33981,0,0,0,2.666-4.86719V9.66943h1.36328Zm4.98633,8.14551h-1.32617V13.56689h-2.13379V12.44775h2.13379V8.7749h1.32617Z" style="fill: #fff"/>
      </g>
    </g>
    <g id="_Group_" data-name="&lt;Group&gt;">
      <g id="_Group_2" data-name="&lt;Group&gt;">
        <path id="_Path_" data-name="&lt;Path&gt;" d="M24.76888,20.30068a4.94881,4.94881,0,0,1,2.35656-4.15206,5.06566,5.06566,0,0,0-3.99116-2.15768c-1.67924-.17626-3.30719,1.00483-4.1629,1.00483-.87227,0-2.18977-.98733-3.6085-.95814a5.31529,5.31529,0,0,0-4.47292,2.72787c-1.934,3.34842-.49141,8.26947,1.3612,10.97608.9269,1.32535,2.01018,2.8058,3.42763,2.7533,1.38706-.05753,1.9051-.88448,3.5794-.88448,1.65876,0,2.14479.88448,3.591.8511,1.48838-.02416,2.42613-1.33124,3.32051-2.66914a10.962,10.962,0,0,0,1.51842-3.09251A4.78205,4.78205,0,0,1,24.76888,20.30068Z" style="fill: #fff"/>
        <path id="_Path_2" data-name="&lt;Path&gt;" d="M22.03725,12.21089a4.87248,4.87248,0,0,0,1.11452-3.49062,4.95746,4.95746,0,0,0-3.20758,1.65961,4.63634,4.63634,0,0,0-1.14371,3.36139A4.09905,4.09905,0,0,0,22.03725,12.21089Z" style="fill: #fff"/>
      </g>
    </g>
  </g>
</svg>
