<svg id="livetype" xmlns="http://www.w3.org/2000/svg" width="156.10054" height="40" viewBox="0 0 156.10054 40">
  <title>Download_on_the_Mac_App_Store_Badge_TH_RGB_blk_092917</title>
  <g>
    <g>
      <g>
        <path d="M146.57123,0H9.53468c-.3667,0-.729,0-1.09473.002-.30615.002-.60986.00781-.91895.0127A13.21476,13.21476,0,0,0,5.5171.19141a6.66509,6.66509,0,0,0-1.90088.627A6.4378,6.4378,0,0,0,1.99757,1.99707,6.25844,6.25844,0,0,0,.81935,3.61816a6.60119,6.60119,0,0,0-.625,1.90332,12.993,12.993,0,0,0-.1792,2.002C.00587,7.83008.00489,8.1377,0,8.44434V31.5586c.00489.3105.00587.6113.01514.9219a12.99232,12.99232,0,0,0,.1792,2.0019,6.58756,6.58756,0,0,0,.625,1.9043A6.20778,6.20778,0,0,0,1.99757,38.001a6.27446,6.27446,0,0,0,1.61865,1.1787,6.70082,6.70082,0,0,0,1.90088.6308,13.45514,13.45514,0,0,0,2.0039.1768c.30909.0068.6128.0107.91895.0107C8.80567,40,9.168,40,9.53468,40H146.57123c.3594,0,.7246,0,1.084-.002.3047,0,.6172-.0039.9219-.0107a13.279,13.279,0,0,0,2-.1768,6.80432,6.80432,0,0,0,1.9082-.6308,6.27742,6.27742,0,0,0,1.6172-1.1787,6.39482,6.39482,0,0,0,1.1816-1.6143,6.60413,6.60413,0,0,0,.6191-1.9043,13.50643,13.50643,0,0,0,.1856-2.0019c.0039-.3106.0039-.6114.0039-.9219.0078-.3633.0078-.7246.0078-1.0938V9.53613c0-.36621,0-.72949-.0078-1.09179,0-.30664,0-.61426-.0039-.9209a13.5071,13.5071,0,0,0-.1856-2.002,6.6177,6.6177,0,0,0-.6191-1.90332,6.46619,6.46619,0,0,0-2.7988-2.7998,6.76754,6.76754,0,0,0-1.9082-.627,13.04394,13.04394,0,0,0-2-.17676c-.3047-.00488-.6172-.01074-.9219-.01269-.3594-.002-.7246-.002-1.084-.002Z" style="fill: #a6a6a6"/>
        <path d="M8.44483,39.125c-.30468,0-.60205-.0039-.90429-.0107a12.68714,12.68714,0,0,1-1.86914-.1631,5.88381,5.88381,0,0,1-1.65674-.5479,5.40573,5.40573,0,0,1-1.397-1.0166,5.32082,5.32082,0,0,1-1.02051-1.3965,5.72184,5.72184,0,0,1-.543-1.6572,12.41339,12.41339,0,0,1-.1665-1.875c-.00634-.2109-.01464-.9131-.01464-.9131V8.44434S.88185,7.75293.8877,7.5498a12.37032,12.37032,0,0,1,.16553-1.87207,5.75552,5.75552,0,0,1,.54346-1.6621A5.3735,5.3735,0,0,1,2.61183,2.61768,5.56543,5.56543,0,0,1,4.01417,1.59521a5.82309,5.82309,0,0,1,1.65332-.54394A12.58589,12.58589,0,0,1,7.543.88721L8.44532.875h139.205l.9131.0127a12.38493,12.38493,0,0,1,1.8584.16259,5.93833,5.93833,0,0,1,1.6709.54785,5.59374,5.59374,0,0,1,2.415,2.41993,5.76267,5.76267,0,0,1,.5352,1.64892,12.995,12.995,0,0,1,.1738,1.88721c.0029.2832.0029.5874.0029.89014.0079.375.0079.73193.0079,1.09179V30.4648c0,.3633,0,.7178-.0079,1.0752,0,.3252,0,.6231-.0039.9297a12.73127,12.73127,0,0,1-.1709,1.8535,5.739,5.739,0,0,1-.54,1.67,5.48029,5.48029,0,0,1-1.0156,1.3857,5.4129,5.4129,0,0,1-1.3994,1.0225,5.86168,5.86168,0,0,1-1.668.5498,12.54218,12.54218,0,0,1-1.8692.1631c-.2929.0068-.5996.0107-.8974.0107l-1.084.002Z"/>
      </g>
      <g id="_Group_" data-name="&lt;Group&gt;">
        <g id="_Group_2" data-name="&lt;Group&gt;">
          <g id="_Group_3" data-name="&lt;Group&gt;">
            <g id="_Group_4" data-name="&lt;Group&gt;">
              <path id="_Path_" data-name="&lt;Path&gt;" d="M24.76888,20.30068a4.94881,4.94881,0,0,1,2.35656-4.15206,5.06566,5.06566,0,0,0-3.99116-2.15768c-1.67924-.17626-3.30719,1.00483-4.1629,1.00483-.87227,0-2.18977-.98733-3.6085-.95814a5.31529,5.31529,0,0,0-4.47292,2.72787c-1.934,3.34842-.49141,8.26947,1.3612,10.97608.9269,1.32535,2.01018,2.8058,3.42763,2.7533,1.38706-.05753,1.9051-.88448,3.5794-.88448,1.65876,0,2.14479.88448,3.591.8511,1.48838-.02416,2.42613-1.33124,3.32051-2.66914a10.962,10.962,0,0,0,1.51842-3.09251A4.78205,4.78205,0,0,1,24.76888,20.30068Z" style="fill: #fff"/>
              <path id="_Path_2" data-name="&lt;Path&gt;" d="M22.03725,12.21089a4.87248,4.87248,0,0,0,1.11452-3.49062,4.95746,4.95746,0,0,0-3.20758,1.65961,4.63634,4.63634,0,0,0-1.14371,3.36139A4.09905,4.09905,0,0,0,22.03725,12.21089Z" style="fill: #fff"/>
            </g>
          </g>
          <g>
            <path d="M46.14895,30.49609V21.35645H46.0884l-3.74316,9.04492H40.91652l-3.75293-9.04492H37.104v9.13965H35.34816v-12.418h2.22949l4.01855,9.80176h.06836l4.01074-9.80176h2.2373v12.418Z" style="fill: #fff"/>
            <path d="M49.396,27.92285c0-1.583,1.21289-2.53906,3.36523-2.668l2.47852-.1377v-.68848c0-1.00684-.66309-1.5752-1.791-1.5752a1.73035,1.73035,0,0,0-1.90137,1.27441H49.8091c.05176-1.63574,1.5752-2.79687,3.69141-2.79687,2.16016,0,3.58887,1.17871,3.58887,2.96v6.20508H55.30813V29.00684h-.043a3.23683,3.23683,0,0,1-2.85742,1.64453A2.74447,2.74447,0,0,1,49.396,27.92285Zm5.84375-.81738V26.4082l-2.22949.1377c-1.11035.06934-1.73828.55078-1.73828,1.3252,0,.792.6543,1.30859,1.65234,1.30859A2.17046,2.17046,0,0,0,55.23977,27.10547Z" style="fill: #fff"/>
            <path d="M64.89309,24.55762a1.99909,1.99909,0,0,0-2.13379-1.66895c-1.42871,0-2.375,1.19629-2.375,3.08105,0,1.92773.95508,3.08887,2.3916,3.08887a1.94829,1.94829,0,0,0,2.11719-1.626h1.79A3.61835,3.61835,0,0,1,62.7593,30.6084c-2.582,0-4.26855-1.76465-4.26855-4.63867,0-2.81445,1.68652-4.63867,4.251-4.63867a3.63931,3.63931,0,0,1,3.9248,3.22656Z" style="fill: #fff"/>
            <path d="M78.7593,27.13965H74.0259l-1.13672,3.35645H70.8843l4.4834-12.418h2.083l4.4834,12.418H79.895Zm-4.24316-1.54883h3.752l-1.84961-5.44727h-.05176Z" style="fill: #fff"/>
            <path d="M91.61672,25.96973c0,2.81348-1.50586,4.62109-3.77832,4.62109a3.0693,3.0693,0,0,1-2.84863-1.584h-.043v4.48438H83.0884V21.44238h1.79883v1.50586h.03418a3.21161,3.21161,0,0,1,2.88281-1.60059C90.10207,21.34766,91.61672,23.16406,91.61672,25.96973Zm-1.91016,0c0-1.833-.94727-3.03809-2.39258-3.03809-1.41992,0-2.375,1.23047-2.375,3.03809,0,1.82422.95508,3.0459,2.375,3.0459C88.7593,29.01563,89.70656,27.81934,89.70656,25.96973Z" style="fill: #fff"/>
            <path d="M101.58156,25.96973c0,2.81348-1.50586,4.62109-3.77832,4.62109a3.0693,3.0693,0,0,1-2.84863-1.584h-.043v4.48438h-1.8584V21.44238h1.79883v1.50586h.03418a3.21162,3.21162,0,0,1,2.88281-1.60059C100.06691,21.34766,101.58156,23.16406,101.58156,25.96973Zm-1.91016,0c0-1.833-.94727-3.03809-2.39258-3.03809-1.41992,0-2.375,1.23047-2.375,3.03809,0,1.82422.95508,3.0459,2.375,3.0459C98.72414,29.01563,99.67141,27.81934,99.67141,25.96973Z" style="fill: #fff"/>
            <path d="M108.1675,27.03613c.1377,1.23145,1.334,2.04,2.96875,2.04,1.56641,0,2.69336-.80859,2.69336-1.91895,0-.96387-.67969-1.541-2.28906-1.93652l-1.60937-.3877c-2.28027-.55078-3.33887-1.61719-3.33887-3.34766,0-2.14258,1.86719-3.61426,4.51855-3.61426,2.624,0,4.42285,1.47168,4.4834,3.61426h-1.876c-.1123-1.23926-1.13672-1.9873-2.63379-1.9873s-2.52149.75684-2.52149,1.8584c0,.87793.65431,1.39453,2.25489,1.79l1.36816.33594c2.54785.60254,3.60645,1.626,3.60645,3.44238,0,2.32324-1.85059,3.77832-4.79395,3.77832-2.75391,0-4.61328-1.4209-4.7334-3.667Z" style="fill: #fff"/>
            <path d="M119.80324,19.2998v2.14258h1.72168v1.47168h-1.72168v4.99121c0,.77539.34473,1.13672,1.10156,1.13672a5.80752,5.80752,0,0,0,.61133-.043v1.46289a5.10351,5.10351,0,0,1-1.03223.08594c-1.833,0-2.54785-.68848-2.54785-2.44434V22.91406h-1.31641V21.44238h1.31641V19.2998Z" style="fill: #fff"/>
            <path d="M122.521,25.96973c0-2.84863,1.67773-4.63867,4.29395-4.63867,2.625,0,4.29492,1.79,4.29492,4.63867,0,2.85645-1.66113,4.63867-4.29492,4.63867C124.18215,30.6084,122.521,28.82617,122.521,25.96973Zm6.69531,0c0-1.9541-.89551-3.10742-2.40137-3.10742s-2.40137,1.16211-2.40137,3.10742c0,1.96191.89551,3.10645,2.40137,3.10645S129.21633,27.93164,129.21633,25.96973Z" style="fill: #fff"/>
            <path d="M132.64309,21.44238h1.77246v1.541h.043a2.1594,2.1594,0,0,1,2.17773-1.63574,2.86616,2.86616,0,0,1,.63672.06934v1.73828a2.598,2.598,0,0,0-.835-.1123,1.87264,1.87264,0,0,0-1.93651,2.083v5.37012h-1.8584Z" style="fill: #fff"/>
            <path d="M145.84035,27.83691c-.25,1.64355-1.85059,2.77148-3.89844,2.77148-2.63379,0-4.26855-1.76465-4.26855-4.5957,0-2.83984,1.64355-4.68164,4.19043-4.68164,2.50488,0,4.08008,1.7207,4.08008,4.46582v.63672h-6.39453v.1123a2.358,2.358,0,0,0,2.43555,2.56445,2.04834,2.04834,0,0,0,2.09082-1.27344Zm-6.28223-2.70215h4.52637a2.1773,2.1773,0,0,0-2.2207-2.29785A2.292,2.292,0,0,0,139.55813,25.13477Z" style="fill: #fff"/>
          </g>
        </g>
      </g>
    </g>
    <g id="_Group_5" data-name="&lt;Group&gt;">
      <g>
        <path d="M38.82619,14.58936V11.74463a1.31071,1.31071,0,0,0-.30078-.88916,1.09515,1.09515,0,0,0-.876-.34717,1.26707,1.26707,0,0,0-1.05859.47412,2.04689,2.04689,0,0,0-.373,1.29541,2.46179,2.46179,0,0,0,.10254.7666,1.4801,1.4801,0,0,0,.26172.49951.92448.92448,0,0,0,.36035.27051,1.03917,1.03917,0,0,0,.39355.08057,2.16876,2.16876,0,0,0,.31348-.021,1.02961,1.02961,0,0,0,.28711-.08887l.16992.68555a1.47867,1.47867,0,0,1-.36816.13135,2.17428,2.17428,0,0,1-.46973.04639,1.99566,1.99566,0,0,1-.7373-.13965,1.72142,1.72142,0,0,1-.63086-.43164,2.09293,2.09293,0,0,1-.43555-.74072,3.13414,3.13414,0,0,1-.16113-1.05859,3.24005,3.24005,0,0,1,.14844-.99463,2.26519,2.26519,0,0,1,.44043-.80029,2.052,2.052,0,0,1,.72754-.5332A2.43887,2.43887,0,0,1,37.624,9.75488a2.5099,2.5099,0,0,1,.92285.15674,1.89112,1.89112,0,0,1,.66406.42773,1.7371,1.7371,0,0,1,.39844.63477,2.29351,2.29351,0,0,1,.13086.77881v2.83643Z" style="fill: #fff"/>
        <path d="M42.99123,14.58936V11.5415q0-1.03271-.88867-1.0332a2.00887,2.00887,0,0,0-.75.144,2.98427,2.98427,0,0,0-.63086.33887l-.23633-.66895a3.10511,3.10511,0,0,1,.75293-.39355,2.65023,2.65023,0,0,1,.94824-.17383,1.6423,1.6423,0,0,1,1.2832.48291,1.925,1.925,0,0,1,.43555,1.3374v3.01416Z" style="fill: #fff"/>
        <path d="M45.09963,13.51416a3.379,3.379,0,0,0,.63867.29639,2.19648,2.19648,0,0,0,.72363.11865,1.20216,1.20216,0,0,0,.97852-.42334,1.95851,1.95851,0,0,0,.35059-1.27,2.01578,2.01578,0,0,0-.35059-1.3125,1.214,1.214,0,0,0-.97852-.415,2.0899,2.0899,0,0,0-.72754.11865,3.16741,3.16741,0,0,0-.64355.33008l-.21191-.70264a3.41936,3.41936,0,0,1,.7793-.35986,2.87584,2.87584,0,0,1,.88867-.13965,2.01987,2.01987,0,0,1,1.60059.63525,2.61751,2.61751,0,0,1,.55859,1.78613,2.69729,2.69729,0,0,1-.57617,1.87549,2.08955,2.08955,0,0,1-1.625.63086,2.77373,2.77373,0,0,1-1.61719-.44043Z" style="fill: #fff"/>
        <path d="M50.72072,12.91309a1.122,1.122,0,0,0,.2207.77881.86856.86856,0,0,0,.66895.2373,1.27149,1.27149,0,0,0,.749-.25,1.55038,1.55038,0,0,0,.52051-.61377V9.84814H53.794v4.74121h-.8291l-.085-.63477a1.941,1.941,0,0,1-.58887.51221,1.75726,1.75726,0,0,1-.90137.21582,1.53709,1.53709,0,0,1-1.17676-.43213,1.85619,1.85619,0,0,1-.40625-1.312V9.84814h.91406Z" style="fill: #fff"/>
        <path d="M53.56545,8.6626a.339.339,0,0,0-.22461.06787.28456.28456,0,0,0-.08008.22852v.2627h-.94043V8.832a.86884.86884,0,0,1,.2627-.67285,1.0995,1.0995,0,0,1,.77051-.2417h.957V8.6626Z" style="fill: #fff"/>
        <path d="M55.52932,14.58936V9.4502a1.74927,1.74927,0,0,0-.10547-.63525,1.87761,1.87761,0,0,0-.25391-.46143,1.5778,1.5778,0,0,0-.30566-.30469,1.24011,1.24011,0,0,0-.2666-.15674l-.0166-.21973a1.909,1.909,0,0,1,.8125-.74121,2.71754,2.71754,0,0,1,1.24512-.2749,4.04025,4.04025,0,0,1,.86328.07617,4.24032,4.24032,0,0,1,.61816.186l-.14355.76221a2.35668,2.35668,0,0,0-.61816-.21582,3.39548,3.39548,0,0,0-.66113-.06348,2.08312,2.08312,0,0,0-.70215.106,1.075,1.075,0,0,0-.44922.2749,1.6925,1.6925,0,0,1,.66895.68994,2.1899,2.1899,0,0,1,.2373,1.0459v5.07129Z" style="fill: #fff"/>
        <path d="M61.13381,14.58936l-.64258-2.083q-.23-.71924-.80469-.73633l-.93945.7959v2.02344h-.915V9.84814h.915V11.5835l2.082-1.73535h1.18555l-1.69336,1.397a1.17134,1.17134,0,0,1,.68164.38086,2.08492,2.08492,0,0,1,.377.71143l.71094,2.252Z" style="fill: #fff"/>
        <path d="M65.86721,14.58936V12.41357H64.75783a1.70525,1.70525,0,0,0-.85059.18213.64881.64881,0,0,0-.31738.61377.67166.67166,0,0,0,.22461.55029.82588.82588,0,0,0,.5459.186,1.72638,1.72638,0,0,0,.35156-.03809,1.85622,1.85622,0,0,0,.34277-.106l.14355.70313a2.40392,2.40392,0,0,1-.93164.16895,2.07914,2.07914,0,0,1-.61816-.08887,1.37222,1.37222,0,0,1-.499-.271,1.27465,1.27465,0,0,1-.335-.457,1.56782,1.56782,0,0,1-.12207-.63916q0-1.541,2.15039-1.541h1.02441V11.5415a1.14562,1.14562,0,0,0-.24609-.77051,1.03734,1.03734,0,0,0-.8291-.28809,2.55218,2.55218,0,0,0-.91016.15234,3.43126,3.43126,0,0,0-.72363.37256l-.29687-.63477a3.58336,3.58336,0,0,1,.36035-.22461,2.77408,2.77408,0,0,1,.46094-.19873,4.24011,4.24011,0,0,1,.5459-.13965,3.323,3.323,0,0,1,.61426-.05518,1.98034,1.98034,0,0,1,1.42676.48291,1.70855,1.70855,0,0,1,.50391,1.29492v3.05664Z" style="fill: #fff"/>
        <path d="M71.39553,14.58936V11.74463a1.31071,1.31071,0,0,0-.30078-.88916,1.09515,1.09515,0,0,0-.876-.34717,1.26707,1.26707,0,0,0-1.05859.47412,2.04689,2.04689,0,0,0-.373,1.29541,2.46179,2.46179,0,0,0,.10254.7666,1.4801,1.4801,0,0,0,.26172.49951.92448.92448,0,0,0,.36035.27051,1.03917,1.03917,0,0,0,.39355.08057,2.16876,2.16876,0,0,0,.31348-.021,1.02961,1.02961,0,0,0,.28711-.08887l.16992.68555a1.47867,1.47867,0,0,1-.36816.13135,2.17428,2.17428,0,0,1-.46973.04639,1.99566,1.99566,0,0,1-.7373-.13965,1.72142,1.72142,0,0,1-.63086-.43164,2.09293,2.09293,0,0,1-.43555-.74072,3.13414,3.13414,0,0,1-.16113-1.05859,3.24005,3.24005,0,0,1,.14844-.99463,2.26519,2.26519,0,0,1,.44043-.80029,2.052,2.052,0,0,1,.72754-.5332,2.43887,2.43887,0,0,1,1.00391-.19482,2.5099,2.5099,0,0,1,.92285.15674,1.89112,1.89112,0,0,1,.66406.42773,1.7371,1.7371,0,0,1,.39844.63477,2.29351,2.29351,0,0,1,.13086.77881v2.83643Z" style="fill: #fff"/>
        <path d="M73.86721,14.58936V9.06055a2.13712,2.13712,0,0,1,.18164-.91846,1.47762,1.47762,0,0,1,.5293-.61377h-1.8623V6.7915h2.9043v.65186a1.28737,1.28737,0,0,0-.623.56738,1.932,1.932,0,0,0-.207.93164v5.647Z" style="fill: #fff"/>
        <path d="M79.46389,14.58936V11.74463a1.31071,1.31071,0,0,0-.30078-.88916,1.09515,1.09515,0,0,0-.876-.34717,1.26707,1.26707,0,0,0-1.05859.47412,2.04689,2.04689,0,0,0-.373,1.29541,2.46179,2.46179,0,0,0,.10254.7666,1.4801,1.4801,0,0,0,.26172.49951.92448.92448,0,0,0,.36035.27051,1.03917,1.03917,0,0,0,.39355.08057,2.16876,2.16876,0,0,0,.31348-.021,1.02961,1.02961,0,0,0,.28711-.08887l.16992.68555a1.47867,1.47867,0,0,1-.36816.13135,2.17428,2.17428,0,0,1-.46973.04639,1.99566,1.99566,0,0,1-.7373-.13965,1.72142,1.72142,0,0,1-.63086-.43164,2.09293,2.09293,0,0,1-.43555-.74072,3.13414,3.13414,0,0,1-.16113-1.05859,3.24005,3.24005,0,0,1,.14844-.99463,2.26519,2.26519,0,0,1,.44043-.80029,2.052,2.052,0,0,1,.72754-.5332,2.43887,2.43887,0,0,1,1.00391-.19482,2.5099,2.5099,0,0,1,.92285.15674,1.89112,1.89112,0,0,1,.66406.42773,1.7371,1.7371,0,0,1,.39844.63477,2.29351,2.29351,0,0,1,.13086.77881v2.83643Z" style="fill: #fff"/>
        <path d="M79.583,8.375a.11957.11957,0,0,0,.13574.13525h1.13379v.71143h-1.5918a.44432.44432,0,0,1-.2832-.09766.349.349,0,0,1-.123-.292V8.60352a.18049.18049,0,0,0-.02539-.10986.13473.13473,0,0,0-.11035-.03418h-.47363V7.72314h.80469a.62493.62493,0,0,1,.38867.10986.39793.39793,0,0,1,.14453.33887Z" style="fill: #fff"/>
        <path d="M84.9507,11.5415a1.29544,1.29544,0,0,0-.19043-.7832.64516.64516,0,0,0-.5459-.25,1.59683,1.59683,0,0,0-.85059.2417,2.179,2.179,0,0,0-.64795.59668v3.24268h-.915V9.84814h.83008l.085.64355a2.6949,2.6949,0,0,1,.313-.2666,2.95228,2.95228,0,0,1,.38086-.2373,2.18631,2.18631,0,0,1,.44043-.16943,1.971,1.971,0,0,1,.50781-.06348,1.37449,1.37449,0,0,1,1.10938.47021,1.9333,1.9333,0,0,1,.39844,1.291v3.07324h-.915Z" style="fill: #fff"/>
        <path d="M82.25,9.22168V8.51025H85.1548V7.72314h.8291V9.22168Z" style="fill: #fff"/>
        <path d="M85.28176,7.291V6.02979h.8291V7.291Z" style="fill: #fff"/>
      </g>
    </g>
  </g>
</svg>
