<svg id="livetype" xmlns="http://www.w3.org/2000/svg" width="179.27921" height="40" viewBox="0 0 179.27921 40">
  <title>Download_on_the_Mac_App_Store_Badge_FI_RGB_blk_100217</title>
  <g>
    <g>
      <g>
        <g>
          <path d="M169.74991,0H9.53468c-.3667,0-.729,0-1.09473.002-.30615.002-.60986.00781-.91895.0127A13.21476,13.21476,0,0,0,5.5171.19141a6.66509,6.66509,0,0,0-1.90088.627A6.4378,6.4378,0,0,0,1.99757,1.99707,6.25844,6.25844,0,0,0,.81935,3.61816a6.60119,6.60119,0,0,0-.625,1.90332,12.993,12.993,0,0,0-.1792,2.002C.00587,7.83008.00489,8.1377,0,8.44434V31.5586c.00489.3105.00587.6113.01514.9219a12.99232,12.99232,0,0,0,.1792,2.0019,6.58756,6.58756,0,0,0,.625,1.9043A6.20778,6.20778,0,0,0,1.99757,38.001a6.27446,6.27446,0,0,0,1.61865,1.1787,6.70082,6.70082,0,0,0,1.90088.6308,13.45514,13.45514,0,0,0,2.0039.1768c.30909.0068.6128.0107.91895.0107C8.80567,40,9.168,40,9.53468,40H169.74991c.3594,0,.7246,0,1.084-.002.3047,0,.6172-.0039.9219-.0107a13.279,13.279,0,0,0,2-.1768,6.80432,6.80432,0,0,0,1.9082-.6308,6.27742,6.27742,0,0,0,1.6172-1.1787,6.39482,6.39482,0,0,0,1.1816-1.6143,6.60413,6.60413,0,0,0,.6191-1.9043,13.50643,13.50643,0,0,0,.1856-2.0019c.0039-.3106.0039-.6114.0039-.9219.0078-.3633.0078-.7246.0078-1.0938V9.53613c0-.36621,0-.72949-.0078-1.09179,0-.30664,0-.61426-.0039-.9209a13.5071,13.5071,0,0,0-.1856-2.002,6.6177,6.6177,0,0,0-.6191-1.90332A6.46619,6.46619,0,0,0,175.664.81836a6.76754,6.76754,0,0,0-1.9082-.627,13.04394,13.04394,0,0,0-2-.17676c-.3047-.00488-.6172-.01074-.9219-.01269-.3594-.002-.7246-.002-1.084-.002Z" style="fill: #a6a6a6"/>
          <path d="M8.44483,39.125c-.30468,0-.60205-.0039-.90429-.0107a12.68714,12.68714,0,0,1-1.86914-.1631,5.88381,5.88381,0,0,1-1.65674-.5479,5.40573,5.40573,0,0,1-1.397-1.0166,5.32082,5.32082,0,0,1-1.02051-1.3965,5.72184,5.72184,0,0,1-.543-1.6572,12.41339,12.41339,0,0,1-.1665-1.875c-.00634-.2109-.01464-.9131-.01464-.9131V8.44434S.88185,7.75293.8877,7.5498a12.37032,12.37032,0,0,1,.16553-1.87207,5.75552,5.75552,0,0,1,.54346-1.6621A5.3735,5.3735,0,0,1,2.61183,2.61768,5.56543,5.56543,0,0,1,4.01417,1.59521a5.82309,5.82309,0,0,1,1.65332-.54394A12.58589,12.58589,0,0,1,7.543.88721L8.44532.875H170.829l.9131.0127a12.38492,12.38492,0,0,1,1.8584.16259,5.93833,5.93833,0,0,1,1.6709.54785,5.59374,5.59374,0,0,1,2.415,2.41993,5.76267,5.76267,0,0,1,.5352,1.64892,12.995,12.995,0,0,1,.1738,1.88721c.0029.2832.0029.5874.0029.89014.0079.375.0079.73193.0079,1.09179V30.4648c0,.3633,0,.7178-.0079,1.0752,0,.3252,0,.6231-.0039.9297a12.73126,12.73126,0,0,1-.1709,1.8535,5.739,5.739,0,0,1-.54,1.67,5.48029,5.48029,0,0,1-1.0156,1.3857,5.4129,5.4129,0,0,1-1.3994,1.0225,5.86168,5.86168,0,0,1-1.668.5498,12.54218,12.54218,0,0,1-1.8692.1631c-.2929.0068-.5996.0107-.8974.0107l-1.084.002Z"/>
        </g>
        <g id="_Group_" data-name="&lt;Group&gt;">
          <g id="_Group_2" data-name="&lt;Group&gt;">
            <g id="_Group_3" data-name="&lt;Group&gt;">
              <g id="_Group_4" data-name="&lt;Group&gt;">
                <path id="_Path_" data-name="&lt;Path&gt;" d="M24.76888,20.30068a4.94881,4.94881,0,0,1,2.35656-4.15206,5.06566,5.06566,0,0,0-3.99116-2.15768c-1.67924-.17626-3.30719,1.00483-4.1629,1.00483-.87227,0-2.18977-.98733-3.6085-.95814a5.31529,5.31529,0,0,0-4.47292,2.72787c-1.934,3.34842-.49141,8.26947,1.3612,10.97608.9269,1.32535,2.01018,2.8058,3.42763,2.7533,1.38706-.05753,1.9051-.88448,3.5794-.88448,1.65876,0,2.14479.88448,3.591.8511,1.48838-.02416,2.42613-1.33124,3.32051-2.66914a10.962,10.962,0,0,0,1.51842-3.09251A4.78205,4.78205,0,0,1,24.76888,20.30068Z" style="fill: #fff"/>
                <path id="_Path_2" data-name="&lt;Path&gt;" d="M22.03725,12.21089a4.87248,4.87248,0,0,0,1.11452-3.49062,4.95746,4.95746,0,0,0-3.20758,1.65961,4.63634,4.63634,0,0,0-1.14371,3.36139A4.09905,4.09905,0,0,0,22.03725,12.21089Z" style="fill: #fff"/>
              </g>
            </g>
          </g>
        </g>
      </g>
      <g id="_Group_5" data-name="&lt;Group&gt;">
        <g>
          <path d="M39.3926,14.69775H35.67092V8.731h.92676V13.8457H39.3926Z" style="fill: #fff"/>
          <path d="M40.32912,13.42432c0-.81055.60352-1.27783,1.6748-1.34424l1.21973-.07031v-.38867c0-.47559-.31445-.74414-.92187-.74414-.49609,0-.83984.18213-.93848.50049h-.86035c.09082-.77344.81836-1.26953,1.83984-1.26953,1.12891,0,1.76563.562,1.76563,1.51318v3.07666h-.85547v-.63281h-.07031a1.515,1.515,0,0,1-1.35254.707A1.36026,1.36026,0,0,1,40.32912,13.42432Zm2.89453-.38477v-.37646L42.124,12.7334c-.62012.0415-.90137.25244-.90137.64941,0,.40527.35156.64111.835.64111A1.0615,1.0615,0,0,0,43.22365,13.03955Z" style="fill: #fff"/>
          <path d="M46.70314,9.07373v1.1416h.97559v.74854h-.97559V13.2793c0,.47168.19434.67822.63672.67822a2.96657,2.96657,0,0,0,.33887-.02051v.74023a2.90533,2.90533,0,0,1-.4834.04541c-.98828,0-1.38184-.34766-1.38184-1.21582v-2.543h-.71484v-.74854h.71484V9.07373Z" style="fill: #fff"/>
          <path d="M48.59475,13.42432c0-.81055.60352-1.27783,1.6748-1.34424l1.21973-.07031v-.38867c0-.47559-.31445-.74414-.92187-.74414-.49609,0-.83984.18213-.93848.50049h-.86035c.09082-.77344.81836-1.26953,1.83984-1.26953,1.12891,0,1.76563.562,1.76563,1.51318v3.07666h-.85547v-.63281h-.07031a1.515,1.515,0,0,1-1.35254.707A1.36026,1.36026,0,0,1,48.59475,13.42432Zm2.89453-.38477v-.37646l-1.09961.07031c-.62012.0415-.90137.25244-.90137.64941,0,.40527.35156.64111.835.64111A1.0615,1.0615,0,0,0,51.48928,13.03955Z" style="fill: #fff"/>
          <path d="M53.50881,13.42432c0-.81055.60352-1.27783,1.6748-1.34424l1.21973-.07031v-.38867c0-.47559-.31445-.74414-.92187-.74414-.49609,0-.83984.18213-.93848.50049h-.86035c.09082-.77344.81836-1.26953,1.83984-1.26953,1.12891,0,1.76563.562,1.76563,1.51318v3.07666h-.85547v-.63281h-.07031a1.515,1.515,0,0,1-1.35254.707A1.36026,1.36026,0,0,1,53.50881,13.42432Zm2.89453-.38477v-.37646l-1.09961.07031c-.62012.0415-.90137.25244-.90137.64941,0,.40527.35156.64111.835.64111A1.0615,1.0615,0,0,0,56.40334,13.03955Z" style="fill: #fff"/>
        </g>
      </g>
    </g>
    <g>
      <path d="M46.15236,30.498V21.35791h-.06055l-3.74316,9.04541H40.91994L37.167,21.35791h-.05957V30.498H35.35158V18.07959h2.22949l4.01855,9.80225H41.668l4.01074-9.80225H47.916V30.498Z" style="fill: #fff"/>
      <path d="M49.39943,27.9248c0-1.583,1.21289-2.53906,3.36523-2.668l2.47852-.1377v-.689c0-1.00684-.66309-1.5752-1.791-1.5752a1.73035,1.73035,0,0,0-1.90137,1.27441H49.81252c.05176-1.63574,1.5752-2.79687,3.69141-2.79687,2.16016,0,3.58887,1.17871,3.58887,2.96V30.498H55.31154V29.00879h-.043a3.23683,3.23683,0,0,1-2.85742,1.64453A2.74447,2.74447,0,0,1,49.39943,27.9248Zm5.84375-.81738v-.69727l-2.22949.1377c-1.11035.06934-1.73828.55078-1.73828,1.3252,0,.792.6543,1.30859,1.65234,1.30859A2.17046,2.17046,0,0,0,55.24318,27.10742Z" style="fill: #fff"/>
      <path d="M64.8965,24.55908a1.99909,1.99909,0,0,0-2.13379-1.66895c-1.42871,0-2.375,1.19629-2.375,3.08154,0,1.92773.95508,3.08887,2.3916,3.08887a1.94829,1.94829,0,0,0,2.11719-1.626h1.79a3.61835,3.61835,0,0,1-3.92383,3.17578c-2.582,0-4.26855-1.76465-4.26855-4.63867,0-2.81494,1.68652-4.63916,4.251-4.63916a3.63931,3.63931,0,0,1,3.9248,3.22656Z" style="fill: #fff"/>
      <path d="M78.76271,27.1416h-4.7334L72.8926,30.498H70.88771l4.4834-12.41846h2.083L81.93752,30.498H79.89846Zm-4.24316-1.54883h3.752L76.42189,20.145h-.05176Z" style="fill: #fff"/>
      <path d="M91.61965,25.97168c0,2.81348-1.50586,4.62109-3.77832,4.62109a3.0693,3.0693,0,0,1-2.84863-1.584h-.043v4.48437h-1.8584V21.44385h1.79883v1.50586h.03418a3.21162,3.21162,0,0,1,2.88281-1.60059C90.105,21.34912,91.61965,23.16553,91.61965,25.97168Zm-1.91016,0c0-1.8335-.94727-3.03857-2.39258-3.03857-1.41992,0-2.375,1.23047-2.375,3.03857,0,1.82422.95508,3.0459,2.375,3.0459C88.76223,29.01758,89.70949,27.82129,89.70949,25.97168Z" style="fill: #fff"/>
      <path d="M101.58449,25.97168c0,2.81348-1.50586,4.62109-3.77832,4.62109a3.0693,3.0693,0,0,1-2.84863-1.584h-.043v4.48437h-1.8584V21.44385H94.855v1.50586h.03418A3.21162,3.21162,0,0,1,97.772,21.34912C100.06984,21.34912,101.58449,23.16553,101.58449,25.97168Zm-1.91016,0c0-1.8335-.94727-3.03857-2.39258-3.03857-1.41992,0-2.375,1.23047-2.375,3.03857,0,1.82422.95508,3.0459,2.375,3.0459C98.72707,29.01758,99.67434,27.82129,99.67434,25.97168Z" style="fill: #fff"/>
      <path d="M108.17043,27.03809c.1377,1.23145,1.334,2.04,2.96875,2.04,1.56641,0,2.69336-.80859,2.69336-1.91895,0-.96387-.67969-1.541-2.28906-1.93652l-1.60937-.38818c-2.28027-.55078-3.33887-1.61719-3.33887-3.34766,0-2.14258,1.86719-3.61426,4.51855-3.61426,2.624,0,4.42285,1.47168,4.4834,3.61426h-1.876c-.1123-1.23926-1.13672-1.9873-2.63379-1.9873s-2.52148.75684-2.52148,1.8584c0,.87793.6543,1.39453,2.25488,1.79l1.36816.33594c2.54785.60254,3.60645,1.62646,3.60645,3.44287,0,2.32324-1.85059,3.77832-4.79395,3.77832-2.75391,0-4.61328-1.4209-4.7334-3.667Z" style="fill: #fff"/>
      <path d="M119.80617,19.30127v2.14258h1.72168v1.47168h-1.72168v4.9917c0,.77539.34473,1.13672,1.10156,1.13672a5.80752,5.80752,0,0,0,.61133-.043v1.46289a5.10351,5.10351,0,0,1-1.03223.08594c-1.833,0-2.54785-.68848-2.54785-2.44434V22.91553h-1.31641V21.44385H117.939V19.30127Z" style="fill: #fff"/>
      <path d="M122.52395,25.97168c0-2.84912,1.67773-4.63916,4.29395-4.63916,2.625,0,4.29492,1.79,4.29492,4.63916,0,2.85645-1.66113,4.63867-4.29492,4.63867C124.18508,30.61035,122.52395,28.82813,122.52395,25.97168Zm6.69531,0c0-1.95459-.89551-3.10791-2.40137-3.10791s-2.40137,1.16211-2.40137,3.10791c0,1.96191.89551,3.10645,2.40137,3.10645S129.21926,27.93359,129.21926,25.97168Z" style="fill: #fff"/>
      <path d="M132.646,21.44385h1.77246v1.541h.043a2.1594,2.1594,0,0,1,2.17773-1.63574,2.86616,2.86616,0,0,1,.63672.06934v1.73828a2.59794,2.59794,0,0,0-.835-.1123,1.8728,1.8728,0,0,0-1.93652,2.0835V30.498H132.646Z" style="fill: #fff"/>
      <path d="M145.84328,27.83887c-.25,1.64355-1.85059,2.77148-3.89844,2.77148-2.63379,0-4.26855-1.76465-4.26855-4.5957,0-2.84033,1.64355-4.68213,4.19043-4.68213,2.50488,0,4.08008,1.7207,4.08008,4.46631v.63672h-6.39453v.1123a2.358,2.358,0,0,0,2.43555,2.56445,2.04834,2.04834,0,0,0,2.09082-1.27344Zm-6.28223-2.70215h4.52637a2.17744,2.17744,0,0,0-2.2207-2.29834A2.29214,2.29214,0,0,0,139.56105,25.13672Z" style="fill: #fff"/>
      <path d="M150.86086,21.34131c2.00586,0,3.44238,1.10938,3.48535,2.71h-1.74707c-.07715-.7998-.75684-1.29-1.79-1.29-1.00684,0-1.67773.46387-1.67773,1.16992,0,.542.44727.90332,1.38574,1.13623l1.52344.35352c1.82422.43848,2.5127,1.10938,2.5127,2.43555,0,1.63477-1.54883,2.75391-3.76074,2.75391-2.13477,0-3.57129-1.09375-3.709-2.74609h1.84082c.12988.86914.82617,1.334,1.9541,1.334,1.11035,0,1.80762-.45605,1.80762-1.17871,0-.55957-.34473-.86035-1.291-1.10156l-1.61816-.39551c-1.63574-.39648-2.46191-1.23145-2.46191-2.48779C147.315,22.43408,148.75246,21.34131,150.86086,21.34131Z" style="fill: #fff"/>
      <path d="M158.50246,19.30127v2.14258h1.72168v1.47168h-1.72168v4.9917c0,.77539.34473,1.13672,1.10156,1.13672a5.80752,5.80752,0,0,0,.61133-.043v1.46289a5.10351,5.10351,0,0,1-1.03223.08594c-1.833,0-2.54785-.68848-2.54785-2.44434V22.91553h-1.31641V21.44385h1.31641V19.30127Z" style="fill: #fff"/>
      <path d="M161.40969,27.9248c0-1.583,1.21289-2.53906,3.36426-2.668l2.47852-.1377v-.689c0-1.00684-.66211-1.5752-1.78906-1.5752a1.73081,1.73081,0,0,0-1.90234,1.27441h-1.73828c.05176-1.63574,1.57422-2.79687,3.69141-2.79687,2.16016,0,3.58887,1.17871,3.58887,2.96V30.498H167.3218V29.00879h-.043a3.23683,3.23683,0,0,1-2.85742,1.64453A2.74447,2.74447,0,0,1,161.40969,27.9248Zm5.84277-.81738v-.69727l-2.22852.1377c-1.11035.06934-1.73828.55078-1.73828,1.3252,0,.792.6543,1.30859,1.65234,1.30859A2.16958,2.16958,0,0,0,167.25246,27.10742Z" style="fill: #fff"/>
    </g>
  </g>
</svg>
