<svg id="livetype" xmlns="http://www.w3.org/2000/svg" width="156.10054" height="40" viewBox="0 0 156.10054 40">
  <title>Download_on_the_Mac_App_Store_Badge_RU_RGB_blk_100317</title>
  <g>
    <g>
      <g>
        <path d="M146.57123,0H9.53468c-.3667,0-.729,0-1.09473.002-.30615.002-.60986.00781-.91895.0127A13.21476,13.21476,0,0,0,5.5171.19141a6.66509,6.66509,0,0,0-1.90088.627A6.4378,6.4378,0,0,0,1.99757,1.99707,6.25844,6.25844,0,0,0,.81935,3.61816a6.60119,6.60119,0,0,0-.625,1.90332,12.993,12.993,0,0,0-.1792,2.002C.00587,7.83008.00489,8.1377,0,8.44434V31.5586c.00489.3105.00587.6113.01514.9219a12.99232,12.99232,0,0,0,.1792,2.0019,6.58756,6.58756,0,0,0,.625,1.9043A6.20778,6.20778,0,0,0,1.99757,38.001a6.27446,6.27446,0,0,0,1.61865,1.1787,6.70082,6.70082,0,0,0,1.90088.6308,13.45514,13.45514,0,0,0,2.0039.1768c.30909.0068.6128.0107.91895.0107C8.80567,40,9.168,40,9.53468,40H146.57123c.3594,0,.7246,0,1.084-.002.3047,0,.6172-.0039.9219-.0107a13.279,13.279,0,0,0,2-.1768,6.80432,6.80432,0,0,0,1.9082-.6308,6.27742,6.27742,0,0,0,1.6172-1.1787,6.39482,6.39482,0,0,0,1.1816-1.6143,6.60413,6.60413,0,0,0,.6191-1.9043,13.50643,13.50643,0,0,0,.1856-2.0019c.0039-.3106.0039-.6114.0039-.9219.0078-.3633.0078-.7246.0078-1.0938V9.53613c0-.36621,0-.72949-.0078-1.09179,0-.30664,0-.61426-.0039-.9209a13.5071,13.5071,0,0,0-.1856-2.002,6.6177,6.6177,0,0,0-.6191-1.90332,6.46619,6.46619,0,0,0-2.7988-2.7998,6.76754,6.76754,0,0,0-1.9082-.627,13.04394,13.04394,0,0,0-2-.17676c-.3047-.00488-.6172-.01074-.9219-.01269-.3594-.002-.7246-.002-1.084-.002Z" style="fill: #a6a6a6"/>
        <path d="M8.44483,39.125c-.30468,0-.60205-.0039-.90429-.0107a12.68714,12.68714,0,0,1-1.86914-.1631,5.88381,5.88381,0,0,1-1.65674-.5479,5.40573,5.40573,0,0,1-1.397-1.0166,5.32082,5.32082,0,0,1-1.02051-1.3965,5.72184,5.72184,0,0,1-.543-1.6572,12.41339,12.41339,0,0,1-.1665-1.875c-.00634-.2109-.01464-.9131-.01464-.9131V8.44434S.88185,7.75293.8877,7.5498a12.37032,12.37032,0,0,1,.16553-1.87207,5.75552,5.75552,0,0,1,.54346-1.6621A5.3735,5.3735,0,0,1,2.61183,2.61768,5.56543,5.56543,0,0,1,4.01417,1.59521a5.82309,5.82309,0,0,1,1.65332-.54394A12.58589,12.58589,0,0,1,7.543.88721L8.44532.875h139.205l.9131.0127a12.38493,12.38493,0,0,1,1.8584.16259,5.93833,5.93833,0,0,1,1.6709.54785,5.59374,5.59374,0,0,1,2.415,2.41993,5.76267,5.76267,0,0,1,.5352,1.64892,12.995,12.995,0,0,1,.1738,1.88721c.0029.2832.0029.5874.0029.89014.0079.375.0079.73193.0079,1.09179V30.4648c0,.3633,0,.7178-.0079,1.0752,0,.3252,0,.6231-.0039.9297a12.73127,12.73127,0,0,1-.1709,1.8535,5.739,5.739,0,0,1-.54,1.67,5.48029,5.48029,0,0,1-1.0156,1.3857,5.4129,5.4129,0,0,1-1.3994,1.0225,5.86168,5.86168,0,0,1-1.668.5498,12.54218,12.54218,0,0,1-1.8692.1631c-.2929.0068-.5996.0107-.8974.0107l-1.084.002Z"/>
      </g>
      <g id="_Group_" data-name="&lt;Group&gt;">
        <g id="_Group_2" data-name="&lt;Group&gt;">
          <g id="_Group_3" data-name="&lt;Group&gt;">
            <g id="_Group_4" data-name="&lt;Group&gt;">
              <path id="_Path_" data-name="&lt;Path&gt;" d="M24.76888,20.30068a4.94881,4.94881,0,0,1,2.35656-4.15206,5.06566,5.06566,0,0,0-3.99116-2.15768c-1.67924-.17626-3.30719,1.00483-4.1629,1.00483-.87227,0-2.18977-.98733-3.6085-.95814a5.31529,5.31529,0,0,0-4.47292,2.72787c-1.934,3.34842-.49141,8.26947,1.3612,10.97608.9269,1.32535,2.01018,2.8058,3.42763,2.7533,1.38706-.05753,1.9051-.88448,3.5794-.88448,1.65876,0,2.14479.88448,3.591.8511,1.48838-.02416,2.42613-1.33124,3.32051-2.66914a10.962,10.962,0,0,0,1.51842-3.09251A4.78205,4.78205,0,0,1,24.76888,20.30068Z" style="fill: #fff"/>
              <path id="_Path_2" data-name="&lt;Path&gt;" d="M22.03725,12.21089a4.87248,4.87248,0,0,0,1.11452-3.49062,4.95746,4.95746,0,0,0-3.20758,1.65961,4.63634,4.63634,0,0,0-1.14371,3.36139A4.09905,4.09905,0,0,0,22.03725,12.21089Z" style="fill: #fff"/>
            </g>
          </g>
          <g>
            <path d="M46.14895,30.49609V21.35645H46.0884l-3.74316,9.04492H40.91652l-3.75293-9.04492H37.104v9.13965H35.34816v-12.418h2.22949l4.01855,9.80176h.06836l4.01074-9.80176h2.2373v12.418Z" style="fill: #fff"/>
            <path d="M49.396,27.92285c0-1.583,1.21289-2.53906,3.36523-2.668l2.47852-.1377v-.68848c0-1.00684-.66309-1.5752-1.791-1.5752a1.73035,1.73035,0,0,0-1.90137,1.27441H49.8091c.05176-1.63574,1.5752-2.79687,3.69141-2.79687,2.16016,0,3.58887,1.17871,3.58887,2.96v6.20508H55.30813V29.00684h-.043a3.23683,3.23683,0,0,1-2.85742,1.64453A2.74447,2.74447,0,0,1,49.396,27.92285Zm5.84375-.81738V26.4082l-2.22949.1377c-1.11035.06934-1.73828.55078-1.73828,1.3252,0,.792.6543,1.30859,1.65234,1.30859A2.17046,2.17046,0,0,0,55.23977,27.10547Z" style="fill: #fff"/>
            <path d="M64.89309,24.55762a1.99909,1.99909,0,0,0-2.13379-1.66895c-1.42871,0-2.375,1.19629-2.375,3.08105,0,1.92773.95508,3.08887,2.3916,3.08887a1.94829,1.94829,0,0,0,2.11719-1.626h1.79A3.61835,3.61835,0,0,1,62.7593,30.6084c-2.582,0-4.26855-1.76465-4.26855-4.63867,0-2.81445,1.68652-4.63867,4.251-4.63867a3.63931,3.63931,0,0,1,3.9248,3.22656Z" style="fill: #fff"/>
            <path d="M78.7593,27.13965H74.0259l-1.13672,3.35645H70.8843l4.4834-12.418h2.083l4.4834,12.418H79.895Zm-4.24316-1.54883h3.752l-1.84961-5.44727h-.05176Z" style="fill: #fff"/>
            <path d="M91.61672,25.96973c0,2.81348-1.50586,4.62109-3.77832,4.62109a3.0693,3.0693,0,0,1-2.84863-1.584h-.043v4.48438H83.0884V21.44238h1.79883v1.50586h.03418a3.21161,3.21161,0,0,1,2.88281-1.60059C90.10207,21.34766,91.61672,23.16406,91.61672,25.96973Zm-1.91016,0c0-1.833-.94727-3.03809-2.39258-3.03809-1.41992,0-2.375,1.23047-2.375,3.03809,0,1.82422.95508,3.0459,2.375,3.0459C88.7593,29.01563,89.70656,27.81934,89.70656,25.96973Z" style="fill: #fff"/>
            <path d="M101.58156,25.96973c0,2.81348-1.50586,4.62109-3.77832,4.62109a3.0693,3.0693,0,0,1-2.84863-1.584h-.043v4.48438h-1.8584V21.44238h1.79883v1.50586h.03418a3.21162,3.21162,0,0,1,2.88281-1.60059C100.06691,21.34766,101.58156,23.16406,101.58156,25.96973Zm-1.91016,0c0-1.833-.94727-3.03809-2.39258-3.03809-1.41992,0-2.375,1.23047-2.375,3.03809,0,1.82422.95508,3.0459,2.375,3.0459C98.72414,29.01563,99.67141,27.81934,99.67141,25.96973Z" style="fill: #fff"/>
            <path d="M108.1675,27.03613c.1377,1.23145,1.334,2.04,2.96875,2.04,1.56641,0,2.69336-.80859,2.69336-1.91895,0-.96387-.67969-1.541-2.28906-1.93652l-1.60937-.3877c-2.28027-.55078-3.33887-1.61719-3.33887-3.34766,0-2.14258,1.86719-3.61426,4.51855-3.61426,2.624,0,4.42285,1.47168,4.4834,3.61426h-1.876c-.1123-1.23926-1.13672-1.9873-2.63379-1.9873s-2.52149.75684-2.52149,1.8584c0,.87793.65431,1.39453,2.25489,1.79l1.36816.33594c2.54785.60254,3.60645,1.626,3.60645,3.44238,0,2.32324-1.85059,3.77832-4.79395,3.77832-2.75391,0-4.61328-1.4209-4.7334-3.667Z" style="fill: #fff"/>
            <path d="M119.80324,19.2998v2.14258h1.72168v1.47168h-1.72168v4.99121c0,.77539.34473,1.13672,1.10156,1.13672a5.80752,5.80752,0,0,0,.61133-.043v1.46289a5.10351,5.10351,0,0,1-1.03223.08594c-1.833,0-2.54785-.68848-2.54785-2.44434V22.91406h-1.31641V21.44238h1.31641V19.2998Z" style="fill: #fff"/>
            <path d="M122.521,25.96973c0-2.84863,1.67773-4.63867,4.29395-4.63867,2.625,0,4.29492,1.79,4.29492,4.63867,0,2.85645-1.66113,4.63867-4.29492,4.63867C124.18215,30.6084,122.521,28.82617,122.521,25.96973Zm6.69531,0c0-1.9541-.89551-3.10742-2.40137-3.10742s-2.40137,1.16211-2.40137,3.10742c0,1.96191.89551,3.10645,2.40137,3.10645S129.21633,27.93164,129.21633,25.96973Z" style="fill: #fff"/>
            <path d="M132.64309,21.44238h1.77246v1.541h.043a2.1594,2.1594,0,0,1,2.17773-1.63574,2.86616,2.86616,0,0,1,.63672.06934v1.73828a2.598,2.598,0,0,0-.835-.1123,1.87264,1.87264,0,0,0-1.93651,2.083v5.37012h-1.8584Z" style="fill: #fff"/>
            <path d="M145.84035,27.83691c-.25,1.64355-1.85059,2.77148-3.89844,2.77148-2.63379,0-4.26855-1.76465-4.26855-4.5957,0-2.83984,1.64355-4.68164,4.19043-4.68164,2.50488,0,4.08008,1.7207,4.08008,4.46582v.63672h-6.39453v.1123a2.358,2.358,0,0,0,2.43555,2.56445,2.04834,2.04834,0,0,0,2.09082-1.27344Zm-6.28223-2.70215h4.52637a2.1773,2.1773,0,0,0-2.2207-2.29785A2.292,2.292,0,0,0,139.55813,25.13477Z" style="fill: #fff"/>
          </g>
        </g>
      </g>
    </g>
    <g id="_Group_5" data-name="&lt;Group&gt;">
      <g>
        <path d="M36.7383,11.25342h.79785a1.0021,1.0021,0,0,0,1.125-.95117c0-.55029-.41406-.90576-1.11621-.90576a1.06357,1.06357,0,0,0-1.2041.93457h-.876a1.87057,1.87057,0,0,1,2.1084-1.74512c1.1748,0,2.002.65771,2.002,1.60449a1.386,1.386,0,0,1-1.084,1.36475v.07031a1.3898,1.3898,0,0,1,1.32715,1.44287,1.9932,1.9932,0,0,1-2.22852,1.77393,1.98335,1.98335,0,0,1-2.24121-1.76562h.88965c.05371.5708.57813.939,1.35156.939s1.27832-.41357,1.27832-.99658c0-.59131-.47559-.95557-1.30664-.95557H36.7383Z" style="fill: #fff"/>
        <path d="M40.82912,13.42432c0-.81055.60449-1.27783,1.6748-1.34424l1.21973-.07031v-.38867c0-.47559-.31348-.74414-.92187-.74414-.49609,0-.83887.18213-.93848.50049h-.86035c.09082-.77344.81934-1.26953,1.84082-1.26953,1.12891,0,1.76563.562,1.76563,1.51318v3.07666h-.85645v-.63281h-.07031a1.515,1.515,0,0,1-1.35254.707A1.36026,1.36026,0,0,1,40.82912,13.42432Zm2.89453-.38477v-.37646L42.624,12.7334c-.62012.0415-.90137.25244-.90137.64941,0,.40527.35156.64111.835.64111A1.0615,1.0615,0,0,0,43.72365,13.03955Z" style="fill: #fff"/>
        <path d="M46.96779,10.94287v3.75488h-.88867V10.19482H49.044v.748Z" style="fill: #fff"/>
        <path d="M54.42971,12.44434c0,1.43066-.72363,2.32764-1.86035,2.32764a1.46778,1.46778,0,0,1-1.38574-.75635H51.1133v2.1792h-.88867v-6h.85547V10.939h.06641a1.56437,1.56437,0,0,1,1.41406-.81885C53.70607,10.12012,54.42971,11.01318,54.42971,12.44434Zm-.91406,0c0-.95117-.4502-1.52588-1.20312-1.52588-.748,0-1.21582.58691-1.21582,1.52979,0,.93848.46777,1.52588,1.21191,1.52588C53.06545,13.97412,53.51564,13.39941,53.51564,12.44434Z" style="fill: #fff"/>
        <path d="M55.6133,16.31055v-.76514a2.1,2.1,0,0,0,.29.0166.77034.77034,0,0,0,.81445-.62842l.06641-.21924-1.62988-4.51953h.96777L57.251,13.77148h.07031l1.125-3.57666h.94238L57.71,14.88379c-.38477,1.0957-.81055,1.44727-1.72852,1.44727C55.90725,16.33105,55.69631,16.32275,55.6133,16.31055Z" style="fill: #fff"/>
        <path d="M60.08107,13.41992h.88477c.08691.397.459.604.97949.604.5918,0,.95508-.26074.95508-.666,0-.43408-.32617-.64111-.95508-.64111H61.2715v-.69043h.66211c.53711,0,.81055-.20654.81055-.583,0-.33057-.26465-.583-.81055-.583-.49707,0-.86035.21094-.918.56641H60.1592a1.578,1.578,0,0,1,1.77441-1.31885c1.07031,0,1.68262.48389,1.68262,1.24463a.92514.92514,0,0,1-.71094.92188v.07031a1.01015,1.01015,0,0,1,.88086,1.01318c0,.856-.72852,1.42236-1.84082,1.42236C60.96193,14.78027,60.16311,14.32959,60.08107,13.41992Z" style="fill: #fff"/>
        <path d="M65.06545,14.69775V10.19482h.88086V13.292h.07031l2.0752-3.09717h.88086v4.50293h-.88086V11.584h-.06641l-2.0791,3.11377Z" style="fill: #fff"/>
        <path d="M73.82521,10.94287h-1.418v3.75488H71.5176V10.94287h-1.418v-.748h3.72559Z" style="fill: #fff"/>
        <path d="M78.61232,13.48193a1.8299,1.8299,0,0,1-1.95215,1.30273,2.04531,2.04531,0,0,1-2.08008-2.32422,2.07685,2.07685,0,0,1,2.07617-2.35254c1.25293,0,2.00977.856,2.00977,2.27V12.688H75.48635v.0498a1.18914,1.18914,0,0,0,1.19922,1.29,1.07872,1.07872,0,0,0,1.07031-.5459Zm-3.126-1.45117h2.27344a1.08625,1.08625,0,0,0-1.10742-1.1665A1.15045,1.15045,0,0,0,75.48635,12.03076Z" style="fill: #fff"/>
        <path d="M82.3799,10.19482h2.03076c.88086,0,1.39746.44629,1.39746,1.145a.96755.96755,0,0,1-.76074.95117v.07031a1.02777,1.02777,0,0,1,.96289,1.03809c0,.78564-.59082,1.29834-1.5791,1.29834H82.3799Zm.88135.68213v1.166h.88086c.53711,0,.79395-.20654.79395-.5874,0-.35107-.22363-.57861-.69531-.57861Zm0,1.81934v1.31934H84.315c.52539,0,.80664-.23193.80664-.65771,0-.45068-.31836-.66162-.918-.66162Z" style="fill: #fff"/>
      </g>
    </g>
  </g>
</svg>
