<?xml version="1.0" encoding="utf-8"?>
<!-- Generator: Adobe Illustrator 23.1.1, SVG Export Plug-In . SVG Version: 6.00 Build 0)  -->
<svg version="1.1" id="Artwork" xmlns="http://www.w3.org/2000/svg" xmlns:xlink="http://www.w3.org/1999/xlink" x="0px" y="0px"
	 width="141.17999px" height="41px" viewBox="0 0 141.17999 41" style="enable-background:new 0 0 141.17999 41;"
	 xml:space="preserve">
<style type="text/css">
	.st0{fill:#A6A6A6;}
	.st1{fill:#FFFFFF;}
</style>
<g>
	<g>
		<g>
			<g>
				<g>
					<g>
						<g>
							<path class="st0" d="M130.65395,0H9.53468c-0.3667,0-0.72901,0-1.09473,0.00195
								C8.1338,0.00391,7.83009,0.00977,7.521,0.01465c-0.66552,0.0166-1.33935,0.05762-2.0039,0.17676
								C4.84767,0.30859,4.2256,0.50879,3.61622,0.81836C3.01759,1.125,2.4707,1.52344,1.99757,1.99707
								c-0.47852,0.47363-0.875,1.02246-1.17822,1.62109c-0.31104,0.6084-0.5083,1.2334-0.625,1.90332
								c-0.12061,0.66211-0.16211,1.33204-0.1792,2.00196C0.00587,7.83008,0.00489,8.1377,0,8.44434c0,0.3623,0,0.72558,0,1.09179
								V30.4648c0,0.3692,0,0.7305,0,1.0938c0.00489,0.3105,0.00587,0.6113,0.01514,0.9219
								c0.01709,0.6699,0.05859,1.3398,0.1792,2.0019c0.1167,0.6699,0.31397,1.2979,0.625,1.9043
								c0.30322,0.5957,0.6997,1.1446,1.17822,1.6143c0.47313,0.4775,1.02002,0.875,1.61865,1.1787
								c0.60938,0.3125,1.23145,0.5098,1.90088,0.6308c0.66455,0.1192,1.33838,0.1583,2.0039,0.1768
								c0.30909,0.0068,0.6128,0.0107,0.91895,0.0107C8.80567,40,9.16798,40,9.53468,40h121.11927c0.35941,0,0.72459,0,1.084-0.002
								c0.3047,0,0.6172-0.0039,0.92191-0.0107c0.66989-0.0185,1.3418-0.0576,2-0.1768c0.66989-0.121,1.29289-0.3183,1.9082-0.6308
								c0.5976-0.3037,1.14449-0.7012,1.6172-1.1787c0.47649-0.4697,0.87299-1.0186,1.18159-1.6143
								c0.30659-0.6064,0.50589-1.2344,0.61909-1.9043c0.12311-0.6621,0.16209-1.332,0.18561-2.0019
								c0.00389-0.3106,0.00389-0.6114,0.00389-0.9219c0.0078-0.3633,0.0078-0.7246,0.0078-1.0938V9.53613
								c0-0.36621,0-0.72949-0.0078-1.09179c0-0.30664,0-0.61426-0.00389-0.9209c-0.02351-0.66992-0.0625-1.33985-0.18561-2.00196
								c-0.1132-0.66992-0.3125-1.29492-0.61909-1.90332c-0.30861-0.59863-0.70511-1.14746-1.18159-1.62109
								c-0.47272-0.47363-1.01961-0.87207-1.6172-1.17871c-0.61531-0.30957-1.23831-0.50977-1.9082-0.62695
								c-0.6582-0.11914-1.33011-0.16016-2-0.17676c-0.3047-0.00488-0.6172-0.01074-0.92191-0.01269
								C131.37854,0,131.01335,0,130.65395,0L130.65395,0z"/>
							<path d="M8.44483,39.125c-0.30468,0-0.60205-0.0039-0.90429-0.0107c-0.55908-0.0157-1.22217-0.0469-1.86914-0.1631
								c-0.61035-0.1104-1.15284-0.2901-1.65674-0.5479c-0.52149-0.2646-0.99024-0.6064-1.39697-1.0166
								c-0.41407-0.4062-0.7544-0.873-1.02051-1.3965C1.3379,35.4854,1.16065,34.9434,1.0542,34.333
								c-0.12206-0.6728-0.15331-1.3555-0.1665-1.875c-0.00634-0.2109-0.01464-0.9131-0.01464-0.9131V8.44434
								c0,0,0.00879-0.69141,0.01464-0.89454c0.01319-0.52392,0.04444-1.20605,0.16553-1.87207
								c0.10694-0.61377,0.28417-1.15527,0.54346-1.6621C1.8623,3.49121,2.20314,3.02197,2.61183,2.61768
								C3.0254,2.20361,3.4961,1.86084,4.01417,1.59521c0.51367-0.26074,1.05518-0.43896,1.65332-0.54394
								c0.67334-0.12061,1.35596-0.15088,1.87549-0.16406L8.44532,0.875h123.28773l0.9131,0.0127
								c0.5127,0.0127,1.1953,0.04297,1.8584,0.16259c0.60249,0.10547,1.14751,0.28467,1.6709,0.54785
								c0.5127,0.2627,0.98241,0.60547,1.3916,1.01563c0.40921,0.40625,0.75191,0.87793,1.02341,1.4043
								c0.2578,0.51123,0.43359,1.05273,0.53519,1.64892c0.11621,0.63086,0.15231,1.27881,0.17381,1.88721
								c0.0029,0.2832,0.0029,0.5874,0.0029,0.89014c0.0079,0.375,0.0079,0.73193,0.0079,1.09179V30.4648
								c0,0.3633,0,0.7178-0.0079,1.0752c0,0.3252,0,0.6231-0.00391,0.9297c-0.02049,0.5889-0.05659,1.2364-0.1709,1.8535
								c-0.1035,0.6133-0.2793,1.1553-0.54001,1.67c-0.26949,0.5195-0.61229,0.9892-1.01559,1.3857
								c-0.4131,0.418-0.8819,0.7588-1.3994,1.0225c-0.5186,0.2636-1.0479,0.4384-1.668,0.5498
								c-0.64059,0.1162-1.3037,0.1474-1.8692,0.1631c-0.29289,0.0068-0.59959,0.0107-0.8974,0.0107l-1.084,0.002L8.44483,39.125z"
								/>
						</g>
					</g>
				</g>
			</g>
		</g>
	</g>
	<g>
		<path class="st1" d="M44.59217,19.42757v-7.82323h-0.05182l-3.20389,7.74215h-1.22288l-3.21225-7.74215h-0.05099v7.82323h-1.5029
			V8.79836h1.90829l3.43961,8.38995h0.05851l3.43292-8.38995h1.91498v10.62922H44.59217z"/>
		<path class="st1" d="M47.37144,17.22508c0-1.35493,1.03815-2.17324,2.88041-2.28357l2.12144-0.11827v-0.58928
			c0-0.86177-0.56755-1.34824-1.53299-1.34824c-0.88351,0-1.50206,0.42044-1.62744,1.0908h-1.48785
			c0.0443-1.40007,1.34826-2.3939,3.15959-2.3939c1.84895,0,3.07182,1.00888,3.07182,2.53349v5.31147h-1.52463v-1.27469h-0.03678
			c-0.4497,0.86177-1.42934,1.40759-2.44576,1.40759C48.43216,19.56048,47.37144,18.61763,47.37144,17.22508z M52.37328,16.52547
			v-0.5968l-1.90829,0.11786c-0.95039,0.05935-1.48785,0.47142-1.48785,1.13426c0,0.67788,0.56004,1.12005,1.4143,1.12005
			C51.50398,18.30083,52.37328,17.53435,52.37328,16.52547z"/>
		<path class="st1" d="M60.63586,14.34429c-0.13959-0.81747-0.7807-1.42848-1.82637-1.42848
			c-1.22288,0-2.03284,1.02393-2.03284,2.63756c0,1.64999,0.81748,2.64383,2.04705,2.64383
			c0.98716,0,1.6358-0.49316,1.81216-1.39171h1.53215c-0.17637,1.62742-1.48032,2.71822-3.35852,2.71822
			c-2.21004,0-3.65359-1.5104-3.65359-3.97034c0-2.40937,1.44355-3.97075,3.63854-3.97075
			c1.98937,0,3.22646,1.25212,3.35936,2.76168H60.63586z"/>
		<path class="st1" d="M72.50438,16.55472h-4.05146l-0.97295,2.87285h-1.71604L69.6014,8.79836h1.78291l3.83748,10.62922H73.4765
			L72.50438,16.55472z M68.87253,15.22905h3.21141L70.5008,10.5662h-0.0443L68.87253,15.22905z"/>
		<path class="st1" d="M83.50945,15.55336c0,2.40811-1.28892,3.95529-3.23399,3.95529c-1.10419,0-1.98101-0.49399-2.43823-1.35576
			h-0.03678v3.83827h-1.59066V11.6779h1.53967v1.2889h0.02926c0.44217-0.83168,1.38503-1.36997,2.46749-1.36997
			C82.21301,11.59682,83.50945,13.15152,83.50945,15.55336z M81.87449,15.55336c0-1.56933-0.8108-2.60078-2.04788-2.60078
			c-1.21535,0-2.03284,1.05318-2.03284,2.60078c0,1.56139,0.81748,2.60705,2.03284,2.60705
			C81.06369,18.16041,81.87449,17.13648,81.87449,15.55336z"/>
		<path class="st1" d="M92.03867,15.55336c0,2.40811-1.28891,3.95529-3.23398,3.95529c-1.10419,0-1.98101-0.49399-2.43823-1.35576
			h-0.03678v3.83827h-1.59066V11.6779h1.53967v1.2889h0.02926c0.44218-0.83168,1.38503-1.36997,2.46748-1.36997
			C90.74223,11.59682,92.03867,13.15152,92.03867,15.55336z M90.40371,15.55336c0-1.56933-0.8108-2.60078-2.04788-2.60078
			c-1.21535,0-2.03284,1.05318-2.03284,2.60078c0,1.56139,0.81748,2.60705,2.03284,2.60705
			C89.59291,18.16041,90.40371,17.13648,90.40371,15.55336z"/>
		<path class="st1" d="M97.67578,16.46612c0.11785,1.05402,1.14179,1.74611,2.54104,1.74611
			c1.34074,0,2.30534-0.69209,2.30534-1.64246c0-0.825-0.58176-1.31899-1.95928-1.65751L99.18536,14.58
			c-1.95175-0.47143-2.85783-1.38418-2.85783-2.86533c0-1.83388,1.59818-3.09352,3.86757-3.09352
			c2.24598,0,3.78565,1.25964,3.83748,3.09352h-1.60571c-0.09612-1.06071-0.97295-1.70098-2.25434-1.70098
			s-2.15823,0.64779-2.15823,1.59064c0,0.75144,0.56004,1.19361,1.93003,1.53213l1.17106,0.28754
			c2.18079,0.51573,3.08687,1.39171,3.08687,2.94683c0,1.98851-1.58398,3.23394-4.10329,3.23394
			c-2.35715,0-3.94865-1.21618-4.05147-3.13865H97.67578z"/>
		<path class="st1" d="M107.63517,9.84402v1.83388h1.47364v1.25964h-1.47364v4.2725c0,0.66367,0.29507,0.97294,0.94286,0.97294
			c0.16216,0,0.42044-0.02257,0.52325-0.03678v1.25212c-0.17637,0.0443-0.52994,0.07355-0.88351,0.07355
			c-1.56893,0-2.18079-0.58928-2.18079-2.09216v-4.44218h-1.12675V11.6779h1.12675V9.84402H107.63517z"/>
		<path class="st1" d="M109.9614,15.55336c0-2.43862,1.43603-3.97075,3.67532-3.97075c2.24682,0,3.67616,1.53213,3.67616,3.97075
			c0,2.44489-1.42181,3.97034-3.67616,3.97034C111.38322,19.5237,109.9614,17.99825,109.9614,15.55336z M115.69212,15.55336
			c0-1.67297-0.76649-2.66012-2.0554-2.66012s-2.0554,0.99467-2.0554,2.66012c0,1.67924,0.76649,2.65887,2.0554,2.65887
			S115.69212,17.2326,115.69212,15.55336z"/>
		<path class="st1" d="M118.62436,11.6779h1.51711v1.31899h0.03677c0.24324-0.87682,0.95039-1.40007,1.86399-1.40007
			c0.2282,0,0.41961,0.03009,0.54499,0.05935V13.144c-0.12538-0.05182-0.4054-0.09612-0.71467-0.09612
			c-1.02394,0-1.65753,0.69293-1.65753,1.78289v4.59681h-1.59066V11.6779z"/>
		<path class="st1" d="M129.92114,17.15153c-0.21399,1.40675-1.58397,2.37217-3.33679,2.37217
			c-2.25434,0-3.65359-1.5104-3.65359-3.93356c0-2.4311,1.40677-4.00753,3.58672-4.00753c2.144,0,3.49227,1.47278,3.49227,3.82281
			v0.54498h-5.47328v0.09612c0,1.32567,0.83253,2.19497,2.08466,2.19497c0.88352,0,1.57646-0.4196,1.7896-1.08996H129.92114z
			 M124.54399,14.83828h3.87425c-0.03677-1.18608-0.79575-1.96678-1.90076-1.96678
			C125.41998,12.8715,124.62507,13.66724,124.54399,14.83828z"/>
	</g>
	<g>
		<path class="st1" d="M39.15693,28.2168c-0.24463,0.33887-0.6875,0.54688-1.24268,0.54688
			c-0.94141,0-1.57227-0.59375-1.57227-1.60059v-2.02441h-0.98877v-0.72461h5.82764v0.72461h-1.0918v5.39453h-0.89453V28.2168
			H39.15693z M39.19453,25.13867h-1.95801v1.92969c0,0.64941,0.30078,0.91309,0.84717,0.91309
			c0.70605,0,1.11084-0.52637,1.11084-1.28906V25.13867z"/>
		<path class="st1" d="M42.61885,28.00977c0.19775,0.22656,0.38574,0.43359,0.67773,0.80078l1.03564,1.31738l-0.7251,0.46191
			l-2.52295-3.23926l0.66846-0.52637c0.20703,0.26367,0.45166,0.47949,0.83789,0.47949c0.35791,0,0.55566-0.16016,0.55566-0.57422
			v-1.59082h-2.41992v-0.72461h4.34961v0.72461h-1.04492v1.64746c0,0.81934-0.53662,1.17676-1.1582,1.21484
			c-0.05615,0-0.17871,0-0.24463-0.01953L42.61885,28.00977z"/>
		<path class="st1" d="M51.44648,27.48242c0.46094,0.18848,0.81885,0.69727,0.81885,1.33691
			c0,0.92285-0.7627,1.65723-1.93945,1.65723c-1.22363,0-2.04297-0.78125-2.48535-1.6377l0.62158-0.45215
			c0.38574,0.79102,1.0542,1.33691,1.87354,1.33691c0.64941,0,1.0918-0.33008,1.0918-0.89453
			c0-0.2168-0.08447-0.41406-0.24463-0.53613L49.7707,28.6123c-0.78174-0.29199-1.30859-0.95996-1.30859-1.66602
			c0-0.59277,0.40479-0.99805,1.12939-0.99805h1.29004v-0.80957h-3.56836v-0.72461h5.64893v0.72461h-1.21436v1.54395h-1.71338
			c-0.55566,0-0.6875,0.16016-0.6875,0.45215c0,0.26367,0.21631,0.57422,0.5459,0.67773L51.44648,27.48242z"/>
		<path class="st1" d="M54.48457,25.13867v5.39453H53.5998v-5.39453h-1.0923v-0.72461h3.07862v0.72461H54.48457z"/>
		<path class="st1" d="M56.0373,28.69727c0.25391,0.49902,0.69629,0.89453,1.33643,0.89453
			c0.65918,0,1.07373-0.36719,1.07373-0.95996c0-0.54688-0.34863-0.9043-1.10156-0.9043h-0.53662v-0.78125h0.43311
			c0.48926,0,0.93164-0.27344,0.93164-0.87598c0-0.64941-0.35742-0.93164-1.0918-0.93164h-1.9585v-0.72461h5.01807v0.72461h-1.53467
			v0.04688c0.16943,0.09473,0.48975,0.35742,0.48975,0.93262c0,0.53613-0.30127,0.96973-0.7627,1.12891v0.04785
			c0.56494,0.12207,1.03564,0.62109,1.03564,1.33691c0,1.00684-0.73438,1.75098-1.98633,1.75098
			c-1.14893,0-1.81738-0.67773-2.08057-1.21484L56.0373,28.69727z"/>
		<path class="st1" d="M60.86396,28.63184c-0.41406-0.23535-0.74365-0.74414-0.74365-1.41309l0.64014-0.47949h2.34424v-1.60059
			h-3.41748v-0.72461h5.39453v0.72461h-1.09179v5.39453h-0.88525v-3.0127h-1.75098v0.91309L60.86396,28.63184z"/>
		<path class="st1" d="M69.87128,26.45703v-1.31836h-5.24365v-0.72461h7.23975v0.72461h-1.10156v5.39453h-0.89453v-3.31445
			c-0.1123-0.1123-0.38574-0.25391-0.6582-0.25391c-0.44287,0-0.71582,0.29199-0.71582,0.89453v0.89453h-0.83789v-0.91309
			c0-0.56543-0.27295-0.84766-0.70605-0.84766c-0.38623,0-0.75342,0.27344-0.75342,0.99805
			c0,0.78125,0.43311,1.51562,1.39355,2.02441l-0.59326,0.61133c-0.979-0.50781-1.71338-1.4873-1.71338-2.66406
			c0-1.16699,0.79102-1.75098,1.58154-1.75098c0.60254,0,1.01709,0.28223,1.17676,0.73438h0.0376
			c0.12256-0.50879,0.54639-0.77246,0.98877-0.77246c0.3291,0,0.62109,0.12305,0.7627,0.2832H69.87128z"/>
		<path class="st1" d="M73.38007,25.13867v5.39453h-0.88477v-5.39453h-1.0918v-0.72461h1.07324
			c-0.4707-0.36719-1.10156-0.99805-1.50684-1.45996l-0.77148-0.89453l1.00684-0.22559l2.10938,2.58008h1.16699v0.72461H73.38007z"
			/>
		<path class="st1" d="M78.15253,27.48242c0.46094,0.18848,0.81934,0.69727,0.81934,1.33691
			c0,0.92285-0.7627,1.65723-1.93945,1.65723c-1.22461,0-2.04297-0.78125-2.48633-1.6377l0.62207-0.45215
			c0.38574,0.79102,1.05469,1.33691,1.87305,1.33691c0.64941,0,1.09277-0.33008,1.09277-0.89453
			c0-0.2168-0.08496-0.41406-0.24512-0.53613l-1.41211,0.31934c-0.78125-0.29199-1.30859-0.95996-1.30859-1.66602
			c0-0.59277,0.4043-0.99805,1.12988-0.99805h1.28906v-0.80957h-3.56738v-0.72461h5.64844v0.72461h-1.21484v1.54395h-1.71289
			c-0.55566,0-0.6875,0.16016-0.6875,0.45215c0,0.26367,0.2168,0.57422,0.5459,0.67773L78.15253,27.48242z"/>
		<path class="st1" d="M87.27119,26.83301c-0.62207,0-1.03613,0.45215-1.03613,1.09277v2.60742h-0.875v-1.61035h-0.03809
			c-0.17871,0.2168-0.5459,0.49023-1.16699,0.49023c-0.88477,0-1.64697-0.66895-1.64697-1.66699
			c0-1.19531,0.99756-1.81641,2.04248-1.69434l0.14062,0.79102c-0.65918-0.12207-1.28027,0.17871-1.28027,0.90332
			c0,0.51855,0.37695,0.89453,0.92285,0.89453c0.62109,0,1.02637-0.45215,1.02637-1.08203v-2.41992h-3.45459v-0.72461h7.78467
			v0.72461h-3.45508v1.42188h0.03809c0.19727-0.22656,0.58398-0.49023,1.17676-0.49023c0.88477,0,1.62891,0.65039,1.62891,1.65723
			c0,1.19531-0.98828,1.82617-2.03418,1.69434L86.904,28.63184c0.65918,0.12207,1.27051-0.17969,1.27051-0.89453
			C88.17451,27.2002,87.80732,26.83301,87.27119,26.83301z"/>
		<path class="st1" d="M91.11787,28.00977c0.19824,0.22656,0.38672,0.43359,0.67871,0.80078l1.03516,1.31738l-0.72461,0.46191
			l-2.52344-3.23926l0.66797-0.52637c0.20801,0.26367,0.45215,0.47949,0.83789,0.47949c0.3584,0,0.55566-0.16016,0.55566-0.57422
			v-1.59082h-2.41895v-0.72461h4.34961v0.72461h-1.0459v1.64746c0,0.81934-0.53613,1.17676-1.15723,1.21484
			c-0.05664,0-0.17871,0-0.24512-0.01953L91.11787,28.00977z"/>
		<path class="st1" d="M90.67353,21.96582l1.7793,2.48535l-0.71582,0.06641l-0.06543-0.05664
			c-0.36719-0.32031-0.95996-0.96973-1.39355-1.54395l-0.58398-0.7627L90.67353,21.96582z"/>
		<path class="st1" d="M92.58714,22.21973c0.3584,0,0.62207,0.27344,0.62207,0.64062c0,0.3291-0.26367,0.59277-0.62207,0.59277
			c-0.33887,0-0.60254-0.26367-0.60254-0.59277C91.9846,22.49316,92.24828,22.21973,92.58714,22.21973z"/>
	</g>
	<g id="XMLID_1_">
		<g id="XMLID_2_">
			<path id="XMLID_4_" class="st1" d="M24.76888,20.30068c-0.02501-2.75083,2.25234-4.08949,2.35656-4.15206
				c-1.28959-1.88052-3.28892-2.1377-3.99116-2.15767c-1.67924-0.17626-3.30719,1.00483-4.1629,1.00483
				c-0.87226,0-2.18977-0.98733-3.6085-0.95814c-1.82632,0.02834-3.53561,1.08575-4.47292,2.72787
				c-1.93395,3.34842-0.4914,8.26947,1.3612,10.97608c0.9269,1.32535,2.01018,2.8058,3.42763,2.7533
				c1.38706-0.05753,1.9051-0.88448,3.57939-0.88448c1.65876,0,2.14479,0.88448,3.59101,0.8511
				c1.48838-0.02416,2.42612-1.33124,3.32051-2.66914c1.07115-1.51954,1.50127-3.01586,1.51842-3.09251
				C27.65346,24.68815,24.79721,23.59873,24.76888,20.30068z"/>
			<path id="XMLID_3_" class="st1" d="M22.03725,12.21089c0.74569-0.93322,1.25621-2.20232,1.11452-3.49062
				c-1.07986,0.04789-2.43031,0.74645-3.20758,1.65961c-0.68773,0.80398-1.30247,2.12234-1.14371,3.36139
				C20.01333,13.83132,21.25871,13.12942,22.03725,12.21089z"/>
		</g>
	</g>
</g>
<g>
</g>
<g>
</g>
<g>
</g>
<g>
</g>
<g>
</g>
<g>
</g>
</svg>
